<?xml version="1.0" encoding="UTF-8" standalone="no"?>
<!DOCTYPE svg PUBLIC "-//W3C//DTD SVG 1.1//EN" "http://www.w3.org/Graphics/SVG/1.1/DTD/svg11.dtd">
<svg width="100%" height="100%" viewBox="0 0 363 363" version="1.1" xmlns="http://www.w3.org/2000/svg" xmlns:xlink="http://www.w3.org/1999/xlink" xml:space="preserve" xmlns:serif="http://www.serif.com/" style="fill-rule:evenodd;clip-rule:evenodd;stroke-linecap:round;stroke-linejoin:round;stroke-miterlimit:1.5;">
    <g transform="matrix(0.478612,0,0,0.478612,72.8851,87.4386)">
        <path d="M225.923,354.706C217.825,354.706 209.728,351.614 203.554,345.443L9.27,151.157C-3.089,138.798 -3.089,118.76 9.27,106.406C21.624,94.052 41.658,94.052 54.018,106.406L225.923,278.321L397.829,106.412C410.188,94.058 430.22,94.058 442.573,106.412C454.938,118.766 454.938,138.804 442.573,151.163L248.292,345.449C242.115,351.621 234.018,354.706 225.923,354.706Z" style="fill:white;fill-rule:nonzero;"/>
    </g>
    <g transform="matrix(1,0,0,1,-46.9544,-79.2128)">
        <circle cx="227.969" cy="260.228" r="167.015" style="fill:none;stroke:white;stroke-width:28px;"/>
    </g>
</svg>
