<?xml version="1.0" encoding="UTF-8" standalone="no"?>
<!DOCTYPE svg PUBLIC "-//W3C//DTD SVG 1.1//EN" "http://www.w3.org/Graphics/SVG/1.1/DTD/svg11.dtd">
<svg width="100%" height="100%" viewBox="0 0 715 786" version="1.1" xmlns="http://www.w3.org/2000/svg" xmlns:xlink="http://www.w3.org/1999/xlink" xml:space="preserve" xmlns:serif="http://www.serif.com/" style="fill-rule:evenodd;clip-rule:evenodd;stroke-linecap:round;stroke-linejoin:round;stroke-miterlimit:10;">
    <g transform="matrix(-1,0,0,1,872.511,375.399)">
        <rect x="449.011" y="255.099" width="158" height="10" style="fill:rgb(15,76,129);stroke:rgb(15,76,129);stroke-width:5px;"/>
    </g>
    <g transform="matrix(-1,0,0,1,897.718,-121.601)">
        <rect x="355.984" y="188.599" width="369.261" height="640" style="fill:rgb(32,154,167);"/>
    </g>
    <g transform="matrix(-1,0,0,1,900.118,-799.656)">
        <rect x="362.567" y="835.395" width="358.495" height="24.463" style="fill:rgb(234,235,200);"/>
    </g>
    <g transform="matrix(1,0,0,1,-183.511,-794.274)">
        <path d="M369.625,849.603L714.005,849.603L714.005,840.268L369.625,840.268L369.625,849.603ZM728.12,861.271L355.512,861.271L355.512,828.6L728.12,828.6L728.12,861.271Z" style="fill:rgb(234,235,200);fill-rule:nonzero;"/>
    </g>
    <g transform="matrix(1,0,0,1,-183.511,-184.403)">
        <g opacity="0.4">
            <g transform="matrix(-1,0,0,1,1084.02,-614.91)">
                <rect x="362.575" y="835.337" width="358.872" height="24.236"/>
            </g>
            <g transform="matrix(1,0,0,1,0,-609.576)">
                <path d="M369.64,849.411L714.383,849.411L714.383,840.163L369.64,840.163L369.64,849.411ZM728.511,860.972L355.511,860.972L355.511,828.604L728.511,828.604L728.511,860.972Z" style="fill-rule:nonzero;"/>
            </g>
        </g>
    </g>
    <g transform="matrix(1,0,0,1,542.83,6.7954)">
        <path d="M0,24.463L-368.925,24.463L-391.541,8.592C-395.463,5.839 -393.382,0 -388.479,0L15.754,0C20.43,0 22.643,5.395 19.167,8.321L0,24.463Z" style="fill:rgb(234,235,200);fill-rule:nonzero;"/>
    </g>
    <g transform="matrix(1,0,0,1,177.01,13.59)">
        <path d="M0,10.873L362.346,10.873L375.208,0L-15.435,0L0,10.873ZM367.897,24.463L-4.825,24.463L-29.283,7.234C-33.597,4.194 -35.283,-0.874 -33.578,-5.68C-31.872,-10.486 -27.285,-13.59 -21.893,-13.59L380.818,-13.59C385.961,-13.59 390.475,-10.676 392.317,-6.166C394.16,-1.656 392.88,3.346 389.059,6.578L367.897,24.463Z" style="fill:rgb(234,235,200);fill-rule:nonzero;"/>
    </g>
    <g transform="matrix(1,0,0,1,525.675,685.28)">
        <path d="M0,-618.282L0,39.359L113.97,39.359L113.97,-657.641" style="fill:rgb(251,108,93);fill-rule:nonzero;"/>
    </g>
    <g transform="matrix(1,0,0,1,-183.511,-184.403)">
        <g opacity="0.1">
            <g transform="matrix(1,0,0,1,723.831,849.746)">
                <path d="M0,-584.409L0,28.1L82.18,28.1L82.18,-612.509L0,-584.409Z" style="fill-rule:nonzero;"/>
            </g>
        </g>
    </g>
    <g transform="matrix(1,0,0,1,441.006,444.783)">
        <path d="M0,275.891C-2.586,275.891 -5.116,274.754 -6.583,272.684C-8.843,269.498 -7.729,265.307 -4.096,263.325C-3.854,263.183 27.106,244.748 27.106,182.115C27.106,117.693 -6.792,80.802 -7.133,80.437C-8.274,79.222 -8.909,77.683 -8.909,76.108L-8.909,6.796C-8.909,3.042 -5.442,0 -1.165,0C3.113,0 6.58,3.042 6.58,6.796L6.58,73.788C14.158,82.744 42.595,120.47 42.595,182.115C42.595,253.027 5.657,274.007 4.084,274.864C2.811,275.559 1.398,275.891 0,275.891" style="fill:white;fill-rule:nonzero;"/>
    </g>
    <g transform="matrix(1,0,0,1,484.376,444.783)">
        <path d="M0,275.891C-2.723,275.891 -5.364,274.628 -6.779,272.39C-8.852,269.108 -7.502,264.971 -3.76,263.151C-2.384,262.452 31.363,244.636 31.363,182.115C31.363,117.577 -6.458,81.093 -6.84,80.732C-8.171,79.475 -8.909,77.823 -8.909,76.108L-8.909,6.796C-8.909,3.042 -5.442,0 -1.165,0C3.113,0 6.58,3.042 6.58,6.796L6.58,73.581C15.168,82.684 46.852,120.449 46.852,182.115C46.852,253.252 5.509,274.182 3.749,275.038C2.56,275.617 1.271,275.891 0,275.891" style="fill:white;fill-rule:nonzero;"/>
    </g>
    <g transform="matrix(1,0,0,1,524.648,444.783)">
        <path d="M0,275.891C-2.889,275.891 -5.66,274.467 -6.991,272.028C-8.84,268.643 -7.206,264.585 -3.349,262.966C-1.721,262.258 37.558,244.49 37.558,182.115C37.558,118.153 -6.021,81.43 -6.462,81.066C-8.017,79.782 -8.909,77.982 -8.909,76.108L-8.909,6.796C-8.909,3.042 -5.442,0 -1.165,0C3.113,0 6.58,3.042 6.58,6.796L6.58,73.304C16.605,82.533 53.047,120.341 53.047,182.115C53.047,253.528 5.367,274.371 3.337,275.224C2.26,275.678 1.119,275.891 0,275.891" style="fill:white;fill-rule:nonzero;"/>
    </g>
    <g transform="matrix(1,0,0,1,564.916,444.783)">
        <path d="M0,275.891C-3.062,275.891 -5.957,274.29 -7.179,271.649C-8.788,268.172 -6.879,264.209 -2.916,262.798C-0.962,262.084 45.696,244.325 45.696,182.115C45.696,118.445 -5.473,81.785 -5.99,81.422C-7.826,80.132 -8.906,78.172 -8.906,76.108L-8.906,6.796C-8.906,3.042 -5.439,0 -1.162,0C3.116,0 6.583,3.042 6.583,6.796L6.583,72.98C18.421,82.269 61.186,120.12 61.186,182.115C61.186,253.82 5.288,274.544 2.911,275.391C1.955,275.73 0.968,275.891 0,275.891" style="fill:white;fill-rule:nonzero;"/>
    </g>
    <g transform="matrix(1,0,0,1,602.087,444.783)">
        <path d="M0,275.891C-3.228,275.891 -6.238,274.109 -7.333,271.278C-8.709,267.725 -6.541,263.865 -2.49,262.66C-0.115,261.939 56.151,244.148 56.151,182.115C56.151,118.755 -4.846,82.119 -5.463,81.757C-7.608,80.495 -8.903,78.373 -8.903,76.108L-8.903,6.796C-8.903,3.042 -5.436,0 -1.158,0C3.119,0 6.586,3.042 6.586,6.796L6.586,72.621C20.629,81.868 71.641,119.753 71.641,182.115C71.641,254.105 3.18,275.323 2.49,275.529C1.664,275.774 0.826,275.891 0,275.891" style="fill:white;fill-rule:nonzero;"/>
    </g>
    <g transform="matrix(1,0,0,1,642.359,444.784)">
        <path d="M0,275.89L-570.379,275.89C-574.657,275.89 -578.124,272.848 -578.124,269.095C-578.124,265.341 -574.657,262.299 -570.379,262.299L-1.386,262.299C6.918,259.456 56.151,240.143 56.151,182.115C56.151,118.755 -4.846,82.119 -5.463,81.757C-7.608,80.494 -8.903,78.373 -8.903,76.108L-8.903,13.591L-569.22,13.591C-573.498,13.591 -576.965,10.549 -576.965,6.796C-576.965,3.042 -573.498,0 -569.22,0L-1.159,0C3.119,0 6.586,3.042 6.586,6.796L6.586,72.621C20.629,81.868 71.641,119.753 71.641,182.115C71.641,254.105 3.18,275.323 2.49,275.529C1.688,275.768 0.847,275.89 0,275.89" style="fill:white;fill-rule:nonzero;"/>
    </g>
    <g transform="matrix(1,0,0,1,272.961,444.784)">
        <path d="M0,275.884C-1.384,275.884 -2.786,275.555 -4.054,274.863C-5.625,274.006 -42.563,253.027 -42.563,182.114C-42.563,120.469 -14.126,82.743 -6.548,73.787L-6.548,6.795C-6.548,3.042 -3.081,0 1.196,0C5.474,0 8.941,3.042 8.941,6.795L8.941,76.107C8.941,77.693 8.309,79.229 7.155,80.448C6.823,80.801 -27.074,117.693 -27.074,182.114C-27.074,244.748 3.884,263.182 4.197,263.362C7.753,265.396 8.815,269.584 6.534,272.725C5.055,274.762 2.558,275.884 0,275.884" style="fill:white;fill-rule:nonzero;"/>
    </g>
    <g transform="matrix(1,0,0,1,111.909,444.783)">
        <path d="M0,275.891C-0.824,275.891 -1.662,275.774 -2.485,275.529C-3.178,275.323 -71.637,254.105 -71.637,182.115C-71.637,119.753 -20.625,81.868 -6.583,72.621L-6.583,6.796C-6.583,3.042 -3.116,0 1.162,0C5.439,0 8.906,3.042 8.906,6.796L8.906,76.108C8.906,78.38 7.612,80.501 5.458,81.762C4.851,82.119 -56.148,118.755 -56.148,182.115C-56.148,244.148 0.118,261.939 2.513,262.665C6.547,263.891 8.702,267.751 7.318,271.294C6.217,274.114 3.218,275.891 0,275.891" style="fill:white;fill-rule:nonzero;"/>
    </g>
    <g transform="matrix(1,0,0,1,642.019,444.784)">
        <path d="M0,275.89L-570.379,275.89C-571.226,275.89 -572.065,275.768 -572.867,275.529C-573.56,275.323 -642.019,254.105 -642.019,182.115C-642.019,119.753 -591.008,81.868 -576.965,72.621L-576.965,6.796C-576.965,3.042 -573.498,0 -569.22,0L-1.159,0C3.119,0 6.586,3.042 6.586,6.796C6.586,10.549 3.119,13.591 -1.159,13.591L-561.476,13.591L-561.476,76.108C-561.476,78.38 -562.771,80.502 -564.924,81.762C-565.531,82.119 -626.53,118.755 -626.53,182.115C-626.53,240.108 -577.355,259.434 -568.992,262.299L0,262.299C4.278,262.299 7.745,265.341 7.745,269.095C7.745,272.848 4.278,275.89 0,275.89" style="fill:white;fill-rule:nonzero;"/>
    </g>
    <g transform="matrix(1,0,0,1,642.019,444.784)">
        <path d="M0,275.89L-570.379,275.89C-571.226,275.89 -572.065,275.768 -572.867,275.529C-573.56,275.323 -642.019,254.105 -642.019,182.115C-642.019,119.753 -591.008,81.868 -576.965,72.621L-576.965,6.796C-576.965,3.042 -573.498,0 -569.22,0L-1.159,0C3.119,0 6.586,3.042 6.586,6.796C6.586,10.549 3.119,13.591 -1.159,13.591L-561.476,13.591L-561.476,76.108C-561.476,78.38 -562.771,80.502 -564.924,81.762C-565.531,82.119 -626.53,118.755 -626.53,182.115C-626.53,240.108 -577.355,259.434 -568.992,262.299L0,262.299C4.278,262.299 7.745,265.341 7.745,269.095C7.745,272.848 4.278,275.89 0,275.89" style="fill:white;fill-rule:nonzero;"/>
    </g>
    <g transform="matrix(1,0,0,1,148.892,739.499)">
        <path d="M0,46L-40.803,46C-52.195,46 -61.431,36.765 -61.431,25.373L-61.431,0L20.627,0L20.627,25.373C20.627,36.765 11.393,46 0,46" style="fill:rgb(234,235,200);fill-rule:nonzero;"/>
    </g>
    <g transform="matrix(1,0,0,1,605.91,739.499)">
        <path d="M0,46L-40.803,46C-52.195,46 -61.43,36.765 -61.43,25.373L-61.43,0L20.628,0L20.628,25.373C20.628,36.765 11.392,46 0,46" style="fill:rgb(234,235,200);fill-rule:nonzero;"/>
    </g>
    <g transform="matrix(1,0,0,1,-183.511,-184.403)">
        <g opacity="0.4">
            <g transform="matrix(1,0,0,1,789.403,943.401)">
                <path d="M0,26.5L-40.803,26.5C-52.195,26.5 -61.431,17.265 -61.431,5.873L-61.431,0L20.627,0L20.627,5.873C20.627,17.265 11.393,26.5 0,26.5" style="fill:rgb(2,2,2);fill-rule:nonzero;"/>
            </g>
        </g>
    </g>
    <g transform="matrix(1,0,0,1,-183.511,-184.403)">
        <g opacity="0.4">
            <g transform="matrix(1,0,0,1,332.403,943.401)">
                <path d="M0,26.5L-40.803,26.5C-52.195,26.5 -61.431,17.265 -61.431,5.873L-61.431,0L20.627,0L20.627,5.873C20.627,17.265 11.393,26.5 0,26.5" style="fill:rgb(2,2,2);fill-rule:nonzero;"/>
            </g>
        </g>
    </g>
    <g transform="matrix(1,0,0,1,-183.511,-184.403)">
        <g opacity="0.2">
            <g transform="matrix(1,0,0,1,617.92,527)">
                <path d="M0,-275.599L-247.138,0L-248.409,-275.599L0,-275.599Z" style="fill-rule:nonzero;"/>
            </g>
        </g>
    </g>
    <g transform="matrix(0,1,1,0,369.991,80.5012)">
        <path d="M-13.503,-13.503L13.503,-13.503" style="fill:none;fill-rule:nonzero;stroke:white;stroke-width:5px;stroke-linecap:butt;stroke-linejoin:miter;"/>
    </g>
    <g transform="matrix(0,-1,-1,0,248.5,441.999)">
        <path d="M-7.5,-7.5C-11.642,-7.5 -15,-4.142 -15,0C-15,4.142 -11.642,7.5 -7.5,7.5C-3.358,7.5 0,4.142 0,0C0,-4.142 -3.358,-7.5 -7.5,-7.5" style="fill:rgb(251,108,93);fill-rule:nonzero;"/>
    </g>
    <g transform="matrix(1,0,0,1,74.3549,27.6388)">
        <path d="M0,697L115.109,697L115.109,39.359L0,0L0,697Z" style="fill:rgb(251,108,93);fill-rule:nonzero;"/>
    </g>
    <g transform="matrix(1,0,0,1,229.601,444.784)">
        <path d="M0,275.887C-1.261,275.887 -2.541,275.614 -3.727,275.038C-5.486,274.181 -46.829,253.252 -46.829,182.115C-46.829,120.449 -15.147,82.684 -6.557,73.581L-6.557,6.796C-6.557,3.042 -3.09,0 1.187,0C5.465,0 8.932,3.042 8.932,6.796L8.932,76.108C8.932,77.823 8.192,79.475 6.863,80.732C6.492,81.085 -31.34,117.894 -31.34,182.115C-31.34,244.636 2.405,262.452 3.842,263.18C7.522,265.045 8.833,269.179 6.739,272.426C5.312,274.638 2.699,275.887 0,275.887" style="fill:white;fill-rule:nonzero;"/>
    </g>
    <g transform="matrix(1,0,0,1,-183.511,-184.403)">
        <g opacity="0.1">
            <g transform="matrix(1,0,0,1,274.331,878.345)">
                <path d="M0,-639.608L0,0L82.18,0L82.18,-611.508L0,-639.608Z" style="fill-rule:nonzero;"/>
            </g>
        </g>
    </g>
    <g transform="matrix(1,0,0,1,370.917,117.829)">
        <path d="M0,-4.668C-2.064,-8.532 -5.429,-15.363 -5.429,-18.83C-5.429,-18.88 -5.429,-18.93 -5.43,-18.979C-5.469,-22.242 -8.205,-24.83 -11.469,-24.83L-17.389,-24.83C-20.653,-24.83 -23.388,-22.242 -23.428,-18.979C-23.428,-18.93 -23.429,-18.88 -23.429,-18.83C-23.429,-15.363 -26.793,-8.532 -28.857,-4.668C-36.136,9.77 -25.202,19.203 -14.974,20.129C-14.61,20.162 -14.247,20.162 -13.884,20.128C-3.657,19.202 7.279,9.772 0,-4.668" style="fill:rgb(246,200,86);fill-rule:nonzero;"/>
    </g>
    <g transform="matrix(1,0,0,1,347.692,85.9991)">
        <path d="M0,11.417L17.593,11.417L16.883,6.914C16.256,2.932 12.826,0 8.796,0C4.765,0 1.333,2.934 0.708,6.916L0,11.417Z" style="fill:white;fill-rule:nonzero;"/>
    </g>
    <g transform="matrix(1,0,0,1,357.449,204.818)">
        <path d="M0,106.451C25.271,106.451 45.756,85.965 45.756,60.695C43.346,0 -43.355,0.018 -45.756,60.695C-45.756,85.965 -25.271,106.451 0,106.451" style="fill:rgb(77,77,77);fill-rule:nonzero;"/>
    </g>
    <g transform="matrix(1,0,0,1,578.559,697.844)">
        <path d="M0,-441.958C-7.274,-450.251 -19.895,-451.078 -28.188,-443.804L-72.646,-404.694C-84.685,-394.104 -99.75,-387.567 -115.708,-386.01C-121.833,-385.416 -146.673,-382.989 -159.252,-381.762C-163.882,-381.31 -168.524,-381.084 -173.176,-381.084L-273.25,-381.084C-276.304,-381.084 -279.345,-381.232 -282.385,-381.529C-293.859,-382.649 -321.858,-385.374 -328.342,-386.01C-344.3,-387.567 -359.365,-394.104 -371.404,-404.694L-415.862,-443.804C-436.275,-460.346 -461.055,-432.495 -442.645,-414.198C-442.358,-413.914 -442.035,-413.644 -441.711,-413.402C-356.958,-350.049 -383.315,-357.734 -284.926,-343.668C-280.869,-343.088 -277.848,-339.618 -277.849,-335.52C-277.863,-253.835 -277.835,-90.928 -277.847,-13.205C-276.621,18.211 -231.806,18.388 -230.274,-12.914C-230.265,-13.105 -230.261,-13.295 -230.261,-13.487L-230.261,-195.317C-230.261,-199.866 -226.574,-203.551 -222.025,-203.551C-217.476,-203.551 -213.789,-199.864 -213.789,-195.315L-213.789,-13.206C-212.556,18.312 -167.469,18.388 -166.203,-13.207C-166.234,-91.234 -166.182,-253.576 -166.201,-335.519C-166.202,-339.617 -163.18,-343.088 -159.123,-343.668C-60.309,-357.79 -87.155,-350.103 -1.846,-413.77C6.448,-421.044 7.274,-433.665 0,-441.958" style="fill:rgb(77,77,77);fill-rule:nonzero;"/>
    </g>
    <g transform="matrix(1,0,0,1,642.019,444.784)">
        <path d="M0,275.89L-570.379,275.89C-571.226,275.89 -572.065,275.768 -572.867,275.529C-573.56,275.323 -642.019,254.105 -642.019,182.115C-642.019,119.753 -591.008,81.868 -576.965,72.621L-576.965,6.796C-576.965,3.042 -573.498,0 -569.22,0L-1.159,0C3.119,0 6.586,3.042 6.586,6.796C6.586,10.549 3.119,13.591 -1.159,13.591L-561.476,13.591L-561.476,76.108C-561.476,78.38 -562.771,80.502 -564.924,81.762C-565.531,82.119 -626.53,118.755 -626.53,182.115C-626.53,240.108 -577.355,259.434 -568.992,262.299L0,262.299C4.278,262.299 7.745,265.341 7.745,269.095C7.745,272.848 4.278,275.89 0,275.89" style="fill:white;fill-rule:nonzero;"/>
    </g>
    <g transform="matrix(0,1,1,0,366.617,156.44)">
        <path d="M-9.879,-9.879L9.879,-9.879" style="fill:none;fill-rule:nonzero;stroke:rgb(255,204,102);stroke-width:5px;stroke-linecap:butt;stroke-linejoin:miter;"/>
    </g>
    <g transform="matrix(1,0,0,1,-183.511,584.074)">
        <path d="M240.431,161.237L838.312,161.237L838.312,150.287L240.431,150.287L240.431,161.237ZM853.801,174.924L224.941,174.924L224.941,136.599L853.801,136.599L853.801,174.924Z" style="fill:rgb(234,235,200);fill-rule:nonzero;"/>
    </g>
    <g transform="matrix(1,0,0,1,400.737,444.784)">
        <path d="M0,275.89C-1.981,275.89 -3.965,275.226 -5.476,273.899C-8.501,271.246 -8.501,266.943 -5.476,264.29C-5.373,264.189 13.94,245.318 13.94,182.115C13.94,116.918 -7.798,79.633 -8.017,79.264C-8.595,78.292 -8.903,77.203 -8.903,76.108L-8.903,6.796C-8.903,3.042 -5.437,0 -1.159,0C3.119,0 6.586,3.042 6.586,6.796L6.586,74.518C10.966,82.557 29.429,120.122 29.429,182.115C29.429,250.897 7.929,271.749 5.476,273.899C3.963,275.226 1.981,275.89 0,275.89" style="fill:white;fill-rule:nonzero;"/>
    </g>
    <g transform="matrix(-1,0,0,1,896.49,271.219)">
        <rect x="532.256" y="180.36" width="15.489" height="263.658" style="fill:white;"/>
    </g>
    <g transform="matrix(1,0,0,1,312.43,444.784)">
        <path d="M0,275.89C-1.981,275.89 -3.965,275.226 -5.476,273.899C-7.928,271.749 -29.43,250.897 -29.43,182.115C-29.43,120.122 -10.966,82.557 -6.586,74.518L-6.586,6.796C-6.586,3.042 -3.119,0 1.159,0C5.437,0 8.903,3.042 8.903,6.796L8.903,76.108C8.903,77.211 8.598,78.298 8.011,79.275C7.797,79.633 -13.94,116.918 -13.94,182.115C-13.94,245.481 5.282,264.119 5.476,264.29C8.501,266.943 8.501,271.246 5.476,273.899C3.964,275.226 1.981,275.89 0,275.89" style="fill:white;fill-rule:nonzero;"/>
    </g>
    <g transform="matrix(-0.50002,0.866014,0.866014,0.50002,340.452,161.403)">
        <path d="M-14.818,-8.555L4.939,-8.555" style="fill:none;fill-rule:nonzero;stroke:rgb(255,204,102);stroke-width:5px;stroke-linecap:butt;stroke-linejoin:miter;"/>
    </g>
    <g transform="matrix(-0.707107,0.707107,0.707107,0.707107,318.414,150.154)">
        <path d="M-16.864,-6.986L2.893,-6.986" style="fill:none;fill-rule:nonzero;stroke:rgb(255,204,102);stroke-width:5px;stroke-linecap:butt;stroke-linejoin:miter;"/>
    </g>
    <g transform="matrix(1,0,0,1,189.339,444.784)">
        <path d="M0,275.89C-1.116,275.89 -2.249,275.676 -3.325,275.223C-5.354,274.371 -53.035,253.528 -53.035,182.115C-53.035,120.341 -16.592,82.533 -6.567,73.304L-6.567,6.796C-6.567,3.042 -3.101,0 1.177,0C5.455,0 8.921,3.042 8.921,6.796L8.921,76.108C8.921,77.991 8.031,79.791 6.46,81.076C6.033,81.43 -37.546,118.153 -37.546,182.115C-37.546,244.49 1.733,262.258 3.407,262.984C7.223,264.64 8.822,268.699 6.959,272.058C5.618,274.476 2.868,275.89 0,275.89" style="fill:white;fill-rule:nonzero;"/>
    </g>
    <g transform="matrix(0.707107,0.707107,0.707107,-0.707107,397.443,130.396)">
        <path d="M-2.893,-6.986L16.864,-6.986" style="fill:none;fill-rule:nonzero;stroke:rgb(255,204,102);stroke-width:5px;stroke-linecap:butt;stroke-linejoin:miter;"/>
    </g>
    <g transform="matrix(1,0,0,1,149.077,444.783)">
        <path d="M0,275.891C-0.968,275.891 -1.95,275.73 -2.902,275.391C-5.282,274.544 -61.179,253.82 -61.179,182.115C-61.179,120.12 -18.416,82.269 -6.577,72.98L-6.577,6.796C-6.577,3.042 -3.11,0 1.168,0C5.446,0 8.913,3.042 8.913,6.796L8.913,76.108C8.913,78.181 7.834,80.14 5.984,81.429C5.479,81.785 -45.69,118.445 -45.69,182.115C-45.69,244.325 0.967,262.084 2.953,262.809C6.889,264.247 8.776,268.212 7.156,271.672C5.925,274.299 3.043,275.891 0,275.891" style="fill:white;fill-rule:nonzero;"/>
    </g>
    <g transform="matrix(0.50002,0.866014,0.866014,-0.50002,383.559,144.292)">
        <path d="M-4.939,-8.555L14.818,-8.555" style="fill:none;fill-rule:nonzero;stroke:rgb(255,204,102);stroke-width:5px;stroke-linecap:butt;stroke-linejoin:miter;"/>
    </g>
    <g transform="matrix(-0.719278,-0.694722,-0.694722,0.719278,359.068,128.682)">
        <path d="M-3.661,-11.05C-2.514,-11.398 -2.241,-8.726 -2.155,-7.888C-1.834,-4.735 -2.66,0.198 -3.661,1.126C-5.027,2.392 -7.364,-3.186 -5.919,-7.677C-5.443,-9.156 -4.464,-10.806 -3.661,-11.05" style="fill:white;fill-rule:nonzero;"/>
    </g>
    <g transform="matrix(1,0,0,1,619.898,365.365)">
        <path d="M0,76.701C5.883,65.371 4.958,58.189 3.098,53.762C-0.795,44.499 -9.638,45.267 -18.587,33.691C-27.9,21.643 -24.133,13.296 -30.978,10.752C-40.913,7.06 -51.772,23.559 -65.054,19.354C-70.498,17.631 -71.522,13.958 -77.446,13.619C-84.579,13.211 -86.698,18.331 -92.935,19.354C-104.954,21.325 -109.007,4.264 -123.913,2.15C-139.069,0 -145.293,16.163 -164.185,13.619C-171.072,12.692 -172.79,10.201 -179.674,10.752C-190.895,11.65 -192.886,18.791 -201.359,19.354C-213.817,20.182 -216.71,5.222 -229.239,5.017C-242.441,4.802 -247.627,21.276 -260.218,19.354C-267.13,18.299 -269.253,12.77 -275.707,13.619C-282.127,14.465 -282.686,20.286 -288.098,22.222C-299.797,26.404 -309.445,3.584 -328.37,2.15C-347.225,0.721 -353.83,22.146 -374.837,19.354C-383.061,18.261 -387.942,14.195 -396.522,16.487C-404.934,18.734 -405.217,23.972 -412.011,25.089C-423.246,26.934 -427.618,13.457 -439.892,13.619C-452.064,13.781 -454.13,27.12 -467.772,27.956C-479.7,28.687 -485.543,18.945 -492.555,22.222C-498.061,24.795 -495.07,31.09 -501.848,39.426C-509.336,48.634 -517.898,50.634 -520.436,53.762C-522.779,56.652 -529.756,66.185 -517.337,76.701L0,76.701Z" style="fill:rgb(170,215,96);fill-rule:nonzero;"/>
    </g>
    <g transform="matrix(1,0,0,1,111.909,444.783)">
        <path d="M0,275.891C-0.824,275.891 -1.662,275.774 -2.485,275.529C-3.178,275.323 -71.637,254.105 -71.637,182.115C-71.637,119.753 -20.625,81.868 -6.583,72.621L-6.583,6.796C-6.583,3.042 -3.116,0 1.162,0C5.439,0 8.906,3.042 8.906,6.796L8.906,76.108C8.906,78.38 7.612,80.501 5.458,81.762C4.851,82.119 -56.148,118.755 -56.148,182.115C-56.148,244.148 0.118,261.939 2.513,262.665C6.547,263.891 8.702,267.751 7.318,271.294C6.217,274.114 3.218,275.891 0,275.891" style="fill:white;fill-rule:nonzero;"/>
    </g>
    <g transform="matrix(1,0,0,1,-183.511,37.4603)">
        <path d="M309.851,435.864L769.789,435.864L769.789,422.273L309.851,422.273L309.851,435.864ZM777.305,449.454L302.335,449.454C298.184,449.454 294.82,446.412 294.82,442.659L294.82,415.478C294.82,411.725 298.184,408.683 302.335,408.683L777.305,408.683C781.456,408.683 784.82,411.725 784.82,415.478L784.82,442.659C784.82,446.412 781.456,449.454 777.305,449.454" style="fill:rgb(234,235,200);fill-rule:nonzero;"/>
    </g>
    <g transform="matrix(1,0,0,1,615.73,386.732)">
        <path d="M0,34.746C-1.148,32.015 -2.754,30.92 -6.601,28.491C-10.457,26.057 -15.737,22.724 -20.827,16.139C-26.244,9.132 -27.93,3.011 -29.047,-1.039C-29.357,-2.161 -29.762,-3.631 -30.092,-4.364C-31.567,-4.245 -35.359,-2.116 -37.455,-0.939C-43.976,2.726 -52.902,7.742 -63.513,4.378C-67.097,3.245 -69.403,1.584 -71.088,0.371C-72.81,-0.867 -72.978,-0.92 -73.782,-0.966C-74.883,-1.031 -75.363,-0.834 -77.689,0.634C-79.902,2.031 -82.932,3.943 -87.343,4.666C-97.781,6.376 -104.413,-0.114 -109.256,-4.858C-113.095,-8.615 -116.411,-11.86 -120.98,-12.509C-124.939,-13.077 -127.89,-11.44 -133.21,-8.262C-139.551,-4.474 -148.247,0.712 -161.191,-1.03C-164.784,-1.515 -167.27,-2.328 -169.268,-2.983C-171.541,-3.724 -172.476,-4.038 -174.802,-3.848C-178.555,-3.548 -180.524,-2.23 -183.251,-0.405C-186.416,1.712 -190.355,4.348 -196.605,4.762C-206.729,5.43 -212.669,-0.256 -217.028,-4.408C-220.752,-7.956 -222.652,-9.514 -225.214,-9.556C-228.181,-9.625 -230.932,-7.472 -235.059,-3.953C-240.114,0.357 -247.034,6.26 -257.375,4.681C-262.304,3.93 -265.556,1.821 -267.931,0.281C-268.693,-0.212 -269.846,-0.96 -270.39,-1.027C-270.762,-0.978 -271.086,-0.721 -272.505,0.885C-274.259,2.873 -276.663,5.594 -281.007,7.148C-291.502,10.896 -299.865,3.716 -306.584,-2.056C-312.235,-6.911 -318.077,-11.932 -324.869,-12.447C-330.474,-12.886 -334.546,-10.088 -340.796,-5.522C-348.205,-0.111 -357.411,6.622 -371.829,4.705C-375.38,4.234 -378.282,3.36 -380.841,2.589C-385.037,1.327 -387.031,0.802 -390.098,1.621C-392.513,2.266 -393.568,3.19 -395.314,4.724C-397.592,6.724 -400.714,9.463 -406.419,10.4C-415.861,11.966 -422.178,7.074 -426.779,3.512C-430.346,0.75 -432.69,-0.953 -435.516,-0.953L-435.61,-0.953C-438.109,-0.92 -439.712,0.346 -443.327,3.689C-447.466,7.517 -453.138,12.76 -463.067,13.369C-471.365,13.867 -477.328,10.864 -481.678,8.669C-482.588,8.21 -483.726,7.634 -484.573,7.282C-484.736,7.804 -484.909,8.448 -485.051,8.978C-485.889,12.098 -487.15,16.809 -491.377,22.005C-496.223,27.967 -501.59,30.551 -505.508,32.437C-506.769,33.043 -508.494,33.874 -508.826,34.279C-509.177,35.346 -509.695,36.333 -510.242,37.379C-512.121,40.969 -513.772,44.129 -509.785,48.538L-1.039,48.538C1.178,43.013 1.531,38.387 0,34.746M-524.73,27.267C-521.73,22.267 -516.91,22.424 -512.962,20.524C-509.782,18.992 -506.778,17.545 -503.986,14.111C-501.529,11.093 -500.849,8.555 -500.129,5.868C-499.197,2.382 -497.917,-2.39 -492.027,-5.143C-484.736,-8.547 -478.241,-5.277 -473.949,-3.107C-470.615,-1.421 -467.744,0.041 -464.144,-0.19C-460.408,-0.418 -458.178,-2.321 -454.563,-5.666C-450.566,-9.359 -445.094,-14.419 -435.843,-14.541C-435.728,-14.544 -435.613,-14.544 -435.501,-14.544C-426.691,-14.544 -420.829,-10.006 -416.533,-6.68C-412.54,-3.587 -411.021,-2.661 -409.269,-2.959C-408.398,-3.101 -408.035,-3.336 -406.268,-4.886C-404.063,-6.821 -400.729,-9.746 -394.609,-11.381C-386.616,-13.519 -380.624,-11.714 -375.813,-10.266C-373.687,-9.625 -371.678,-9.02 -369.512,-8.732C-362.321,-7.783 -357.695,-10.863 -350.707,-15.966C-344.033,-20.841 -335.738,-26.898 -323.537,-25.987C-311.209,-25.054 -302.636,-17.685 -295.746,-11.766C-294.035,-10.295 -291.596,-8.2 -289.617,-6.829C-288.085,-5.769 -286.005,-6.016 -284.771,-7.412C-284.764,-7.421 -284.756,-7.43 -284.748,-7.439C-282.713,-9.742 -279.309,-13.596 -272.687,-14.467C-265.973,-15.364 -261.614,-12.523 -258.728,-10.65C-256.964,-9.507 -255.985,-8.902 -254.721,-8.708C-252.408,-8.363 -250.241,-9.958 -245.854,-13.698C-240.837,-17.976 -234.635,-23.263 -224.927,-23.144C-215.476,-22.99 -209.789,-17.571 -205.635,-13.616C-201.905,-10.063 -200.131,-8.673 -197.774,-8.789C-196.236,-8.891 -195.203,-9.501 -192.644,-11.212C-189.165,-13.54 -184.401,-16.727 -176.209,-17.382C-170.381,-17.84 -166.758,-16.666 -163.854,-15.715C-162.248,-15.19 -160.862,-14.736 -158.842,-14.464C-151.924,-13.519 -147.507,-16.162 -141.925,-19.497C-136.047,-23.006 -128.732,-27.383 -118.509,-25.924C-108.532,-24.51 -102.539,-18.644 -97.722,-13.929C-93.876,-10.164 -91.877,-8.433 -90.188,-8.693C-89.22,-8.853 -88.291,-9.415 -86.733,-10.399C-83.883,-12.198 -79.563,-14.909 -72.773,-14.528C-66.901,-14.192 -63.509,-11.751 -61.266,-10.136C-59.996,-9.223 -59.286,-8.731 -58.257,-8.405C-55.05,-7.385 -51.415,-9.232 -45.805,-12.384C-39.756,-15.783 -32.234,-20.012 -23.789,-16.872C-16.755,-14.257 -15.223,-8.7 -13.992,-4.234C-12.987,-0.588 -11.848,3.542 -8.009,8.51C-4.461,13.1 -1.105,15.218 2.444,17.459C6.783,20.199 11.699,23.302 14.533,30.044C17.88,38.008 16.764,47.465 11.216,58.151C9.959,60.574 7.203,62.129 4.168,62.129L-513.17,62.129C-515.176,62.129 -516.995,61.301 -518.549,60.223C-531.842,51.008 -528.967,34.679 -524.73,27.267" style="fill:rgb(170,215,96);fill-rule:nonzero;"/>
    </g>
    <g transform="matrix(0,-1,-1,0,126.032,418.649)">
        <path d="M-9.872,-9.872C-15.325,-9.872 -19.746,-5.452 -19.746,0.001C-19.746,5.453 -15.325,9.872 -9.872,9.872C-4.419,9.872 0.001,5.453 0.001,0.001C0.001,-5.452 -4.419,-9.872 -9.872,-9.872" style="fill:white;fill-rule:nonzero;"/>
    </g>
    <g transform="matrix(0,-1,-1,0,155.968,418.649)">
        <path d="M-9.872,-9.872C-15.325,-9.872 -19.746,-5.452 -19.746,0.001C-19.746,5.453 -15.325,9.872 -9.872,9.872C-4.419,9.872 0.001,5.453 0.001,0.001C0.001,-5.452 -4.419,-9.872 -9.872,-9.872" style="fill:white;fill-rule:nonzero;"/>
    </g>
    <g transform="matrix(0,-1,-1,0,151.191,408.458)">
        <path d="M-9.872,-9.872C-15.324,-9.872 -19.746,-5.452 -19.746,0.001C-19.746,5.453 -15.324,9.872 -9.872,9.872C-4.419,9.872 0.001,5.453 0.001,0.001C0.001,-5.452 -4.419,-9.872 -9.872,-9.872" style="fill:white;fill-rule:nonzero;"/>
    </g>
    <g transform="matrix(0,-1,-1,0,151.191,428.84)">
        <path d="M-9.872,-9.872C-15.325,-9.872 -19.746,-5.452 -19.746,0.001C-19.746,5.453 -15.325,9.872 -9.872,9.872C-4.42,9.872 0.001,5.453 0.001,0.001C0.001,-5.452 -4.42,-9.872 -9.872,-9.872" style="fill:white;fill-rule:nonzero;"/>
    </g>
    <g transform="matrix(0,-1,-1,0,130.809,428.84)">
        <path d="M-9.872,-9.872C-15.325,-9.872 -19.746,-5.452 -19.746,0.001C-19.746,5.453 -15.325,9.872 -9.872,9.872C-4.42,9.872 0.001,5.453 0.001,0.001C0.001,-5.452 -4.42,-9.872 -9.872,-9.872" style="fill:white;fill-rule:nonzero;"/>
    </g>
    <g transform="matrix(0,-1,-1,0,130.809,408.458)">
        <path d="M-9.872,-9.872C-15.324,-9.872 -19.746,-5.452 -19.746,0.001C-19.746,5.453 -15.324,9.872 -9.872,9.872C-4.419,9.872 0.001,5.453 0.001,0.001C0.001,-5.452 -4.419,-9.872 -9.872,-9.872" style="fill:white;fill-rule:nonzero;"/>
    </g>
    <g transform="matrix(0,-1,-1,0,141,403.998)">
        <path d="M-9.873,-9.873C-15.326,-9.873 -19.746,-5.453 -19.746,0C-19.746,5.452 -15.326,9.873 -9.873,9.873C-4.421,9.873 0,5.452 0,0C0,-5.453 -4.421,-9.873 -9.873,-9.873" style="fill:white;fill-rule:nonzero;"/>
    </g>
    <g transform="matrix(0,-1,-1,0,141,433.298)">
        <path d="M-9.873,-9.873C-15.325,-9.873 -19.746,-5.453 -19.746,0C-19.746,5.452 -15.325,9.873 -9.873,9.873C-4.42,9.873 0,5.452 0,0C0,-5.453 -4.42,-9.873 -9.873,-9.873" style="fill:white;fill-rule:nonzero;"/>
    </g>
    <g transform="matrix(1,0,0,1,-183.511,-184.403)">
        <g opacity="0.1">
            <g transform="matrix(0,-1,-1,0,324.511,601.459)">
                <path d="M-11.465,-11.465C-17.797,-11.465 -22.93,-6.332 -22.93,0C-22.93,6.332 -17.797,11.465 -11.465,11.465C-5.133,11.465 0,6.332 0,0C0,-6.332 -5.133,-11.465 -11.465,-11.465" style="fill-rule:nonzero;"/>
            </g>
        </g>
    </g>
    <g transform="matrix(-1,0,0,1,896.129,37.4603)">
        <rect x="302.82" y="415.478" width="474" height="27.181" style="fill:rgb(234,235,200);"/>
    </g>
    <g transform="matrix(-1,0,0,1,896.128,583.802)">
        <rect x="233.134" y="143.666" width="613.371" height="24.463" style="fill:rgb(234,235,200);"/>
    </g>
    <g transform="matrix(0.707107,-0.707107,-0.707107,-0.707107,211,410.054)">
        <path d="M-4.27,10.308L24.886,10.308" style="fill:none;fill-rule:nonzero;"/>
    </g>
    <g transform="matrix(0.707107,0.707107,0.707107,-0.707107,211,380.989)">
        <path d="M-4.243,-10.244L24.731,-10.244" style="fill:none;fill-rule:nonzero;"/>
    </g>
    <g transform="matrix(0,-1,-1,0,196.032,385.604)">
        <path d="M-9.872,-9.872C-15.324,-9.872 -19.746,-5.452 -19.746,0.001C-19.746,5.453 -15.324,9.872 -9.872,9.872C-4.419,9.872 0.001,5.453 0.001,0.001C0.001,-5.452 -4.419,-9.872 -9.872,-9.872" style="fill:rgb(251,108,93);fill-rule:nonzero;"/>
    </g>
    <g transform="matrix(0,-1,-1,0,225.968,385.604)">
        <path d="M-9.872,-9.872C-15.324,-9.872 -19.746,-5.452 -19.746,0.001C-19.746,5.453 -15.324,9.872 -9.872,9.872C-4.419,9.872 0.001,5.453 0.001,0.001C0.001,-5.452 -4.419,-9.872 -9.872,-9.872" style="fill:rgb(251,108,93);fill-rule:nonzero;"/>
    </g>
    <g transform="matrix(0,-1,-1,0,221.191,375.413)">
        <path d="M-9.872,-9.872C-15.325,-9.872 -19.746,-5.452 -19.746,0.001C-19.746,5.453 -15.325,9.872 -9.872,9.872C-4.42,9.872 0.001,5.453 0.001,0.001C0.001,-5.452 -4.42,-9.872 -9.872,-9.872" style="fill:rgb(251,108,93);fill-rule:nonzero;"/>
    </g>
    <g transform="matrix(0,-1,-1,0,221.191,395.795)">
        <path d="M-9.872,-9.872C-15.325,-9.872 -19.746,-5.452 -19.746,0.001C-19.746,5.453 -15.325,9.872 -9.872,9.872C-4.419,9.872 0.001,5.453 0.001,0.001C0.001,-5.452 -4.419,-9.872 -9.872,-9.872" style="fill:rgb(251,108,93);fill-rule:nonzero;"/>
    </g>
    <g transform="matrix(0,-1,-1,0,200.809,395.795)">
        <path d="M-9.872,-9.872C-15.325,-9.872 -19.746,-5.452 -19.746,0.001C-19.746,5.453 -15.325,9.872 -9.872,9.872C-4.419,9.872 0.001,5.453 0.001,0.001C0.001,-5.452 -4.419,-9.872 -9.872,-9.872" style="fill:rgb(251,108,93);fill-rule:nonzero;"/>
    </g>
    <g transform="matrix(0,-1,-1,0,200.809,375.413)">
        <path d="M-9.872,-9.872C-15.325,-9.872 -19.746,-5.452 -19.746,0.001C-19.746,5.453 -15.325,9.872 -9.872,9.872C-4.42,9.872 0.001,5.453 0.001,0.001C0.001,-5.452 -4.42,-9.872 -9.872,-9.872" style="fill:rgb(251,108,93);fill-rule:nonzero;"/>
    </g>
    <g transform="matrix(0,-1,-1,0,211,370.954)">
        <path d="M-9.873,-9.873C-15.326,-9.873 -19.746,-5.453 -19.746,0C-19.746,5.452 -15.326,9.873 -9.873,9.873C-4.42,9.873 0,5.452 0,0C0,-5.453 -4.42,-9.873 -9.873,-9.873" style="fill:rgb(251,108,93);fill-rule:nonzero;"/>
    </g>
    <g transform="matrix(0,-1,-1,0,211,400.253)">
        <path d="M-9.873,-9.873C-15.326,-9.873 -19.746,-5.453 -19.746,0C-19.746,5.452 -15.326,9.873 -9.873,9.873C-4.42,9.873 0,5.452 0,0C0,-5.453 -4.42,-9.873 -9.873,-9.873" style="fill:rgb(251,108,93);fill-rule:nonzero;"/>
    </g>
    <g transform="matrix(1,0,0,1,-183.511,-184.403)">
        <g opacity="0.1">
            <g transform="matrix(0,-1,-1,0,394.511,568.414)">
                <path d="M-11.465,-11.465C-17.797,-11.465 -22.93,-6.332 -22.93,0C-22.93,6.332 -17.797,11.465 -11.465,11.465C-5.133,11.465 0,6.332 0,0C0,-6.332 -5.133,-11.465 -11.465,-11.465" style="fill-rule:nonzero;"/>
            </g>
        </g>
    </g>
    <g transform="matrix(0,-1,-1,0,211,385.604)">
        <path d="M-9.873,-9.873C-15.325,-9.873 -19.746,-5.453 -19.746,0C-19.746,5.452 -15.325,9.873 -9.873,9.873C-4.42,9.873 0,5.452 0,0C0,-5.453 -4.42,-9.873 -9.873,-9.873" style="fill:rgb(246,200,86);fill-rule:nonzero;"/>
    </g>
    <g transform="matrix(0.707107,-0.707107,-0.707107,-0.707107,591,453.054)">
        <path d="M-4.27,10.308L24.886,10.308" style="fill:none;fill-rule:nonzero;"/>
    </g>
    <g transform="matrix(0.707107,0.707107,0.707107,-0.707107,591,423.989)">
        <path d="M-4.243,-10.244L24.731,-10.244" style="fill:none;fill-rule:nonzero;"/>
    </g>
    <g transform="matrix(0,-1,-1,0,576.032,428.604)">
        <path d="M-9.872,-9.872C-15.324,-9.872 -19.746,-5.452 -19.746,0.001C-19.746,5.453 -15.324,9.872 -9.872,9.872C-4.419,9.872 0.001,5.453 0.001,0.001C0.001,-5.452 -4.419,-9.872 -9.872,-9.872" style="fill:rgb(251,108,93);fill-rule:nonzero;"/>
    </g>
    <g transform="matrix(0,-1,-1,0,605.968,428.604)">
        <path d="M-9.872,-9.872C-15.324,-9.872 -19.746,-5.452 -19.746,0.001C-19.746,5.453 -15.324,9.872 -9.872,9.872C-4.419,9.872 0.001,5.453 0.001,0.001C0.001,-5.452 -4.419,-9.872 -9.872,-9.872" style="fill:rgb(251,108,93);fill-rule:nonzero;"/>
    </g>
    <g transform="matrix(0,-1,-1,0,601.191,418.413)">
        <path d="M-9.872,-9.872C-15.325,-9.872 -19.746,-5.452 -19.746,0.001C-19.746,5.453 -15.325,9.872 -9.872,9.872C-4.42,9.872 0.001,5.453 0.001,0.001C0.001,-5.452 -4.42,-9.872 -9.872,-9.872" style="fill:rgb(251,108,93);fill-rule:nonzero;"/>
    </g>
    <g transform="matrix(0,-1,-1,0,601.191,438.795)">
        <path d="M-9.872,-9.872C-15.325,-9.872 -19.746,-5.452 -19.746,0.001C-19.746,5.453 -15.325,9.872 -9.872,9.872C-4.419,9.872 0.001,5.453 0.001,0.001C0.001,-5.452 -4.419,-9.872 -9.872,-9.872" style="fill:rgb(251,108,93);fill-rule:nonzero;"/>
    </g>
    <g transform="matrix(0,-1,-1,0,580.809,438.795)">
        <path d="M-9.872,-9.872C-15.325,-9.872 -19.746,-5.452 -19.746,0.001C-19.746,5.453 -15.325,9.872 -9.872,9.872C-4.419,9.872 0.001,5.453 0.001,0.001C0.001,-5.452 -4.419,-9.872 -9.872,-9.872" style="fill:rgb(251,108,93);fill-rule:nonzero;"/>
    </g>
    <g transform="matrix(0,-1,-1,0,580.809,418.413)">
        <path d="M-9.872,-9.872C-15.325,-9.872 -19.746,-5.452 -19.746,0.001C-19.746,5.453 -15.325,9.872 -9.872,9.872C-4.42,9.872 0.001,5.453 0.001,0.001C0.001,-5.452 -4.42,-9.872 -9.872,-9.872" style="fill:rgb(251,108,93);fill-rule:nonzero;"/>
    </g>
    <g transform="matrix(0,-1,-1,0,591,413.954)">
        <path d="M-9.873,-9.873C-15.326,-9.873 -19.746,-5.453 -19.746,0C-19.746,5.452 -15.326,9.873 -9.873,9.873C-4.42,9.873 0,5.452 0,0C0,-5.453 -4.42,-9.873 -9.873,-9.873" style="fill:rgb(251,108,93);fill-rule:nonzero;"/>
    </g>
    <g transform="matrix(0,-1,-1,0,591,443.253)">
        <path d="M-9.873,-9.873C-15.326,-9.873 -19.746,-5.453 -19.746,0C-19.746,5.452 -15.326,9.873 -9.873,9.873C-4.42,9.873 0,5.452 0,0C0,-5.453 -4.42,-9.873 -9.873,-9.873" style="fill:rgb(251,108,93);fill-rule:nonzero;"/>
    </g>
    <g transform="matrix(1,0,0,1,-183.511,-184.403)">
        <g opacity="0.1">
            <g transform="matrix(0,-1,-1,0,774.511,611.414)">
                <path d="M-11.465,-11.465C-17.797,-11.465 -22.93,-6.332 -22.93,0C-22.93,6.332 -17.797,11.465 -11.465,11.465C-5.133,11.465 0,6.332 0,0C0,-6.332 -5.133,-11.465 -11.465,-11.465" style="fill-rule:nonzero;"/>
            </g>
        </g>
    </g>
    <g transform="matrix(0,-1,-1,0,591,428.604)">
        <path d="M-9.873,-9.873C-15.325,-9.873 -19.746,-5.453 -19.746,0C-19.746,5.452 -15.325,9.873 -9.873,9.873C-4.42,9.873 0,5.452 0,0C0,-5.453 -4.42,-9.873 -9.873,-9.873" style="fill:rgb(246,200,86);fill-rule:nonzero;"/>
    </g>
    <g transform="matrix(0.707107,-0.707107,-0.707107,-0.707107,482,453.054)">
        <path d="M-4.27,10.308L24.886,10.308" style="fill:none;fill-rule:nonzero;"/>
    </g>
    <g transform="matrix(0.707107,0.707107,0.707107,-0.707107,482,423.989)">
        <path d="M-4.243,-10.244L24.731,-10.244" style="fill:none;fill-rule:nonzero;"/>
    </g>
    <g transform="matrix(0,-1,-1,0,467.032,428.604)">
        <path d="M-9.872,-9.872C-15.324,-9.872 -19.746,-5.452 -19.746,0.001C-19.746,5.453 -15.324,9.872 -9.872,9.872C-4.419,9.872 0.001,5.453 0.001,0.001C0.001,-5.452 -4.419,-9.872 -9.872,-9.872" style="fill:rgb(251,108,93);fill-rule:nonzero;"/>
    </g>
    <g transform="matrix(0,-1,-1,0,496.968,428.604)">
        <path d="M-9.872,-9.872C-15.324,-9.872 -19.746,-5.452 -19.746,0.001C-19.746,5.453 -15.324,9.872 -9.872,9.872C-4.419,9.872 0.001,5.453 0.001,0.001C0.001,-5.452 -4.419,-9.872 -9.872,-9.872" style="fill:rgb(251,108,93);fill-rule:nonzero;"/>
    </g>
    <g transform="matrix(0,-1,-1,0,492.191,418.413)">
        <path d="M-9.872,-9.872C-15.325,-9.872 -19.746,-5.452 -19.746,0.001C-19.746,5.453 -15.325,9.872 -9.872,9.872C-4.42,9.872 0.001,5.453 0.001,0.001C0.001,-5.452 -4.42,-9.872 -9.872,-9.872" style="fill:rgb(251,108,93);fill-rule:nonzero;"/>
    </g>
    <g transform="matrix(0,-1,-1,0,492.191,438.795)">
        <path d="M-9.872,-9.872C-15.325,-9.872 -19.746,-5.452 -19.746,0.001C-19.746,5.453 -15.325,9.872 -9.872,9.872C-4.419,9.872 0.001,5.453 0.001,0.001C0.001,-5.452 -4.419,-9.872 -9.872,-9.872" style="fill:rgb(251,108,93);fill-rule:nonzero;"/>
    </g>
    <g transform="matrix(0,-1,-1,0,471.809,438.795)">
        <path d="M-9.872,-9.872C-15.325,-9.872 -19.746,-5.452 -19.746,0.001C-19.746,5.453 -15.325,9.872 -9.872,9.872C-4.419,9.872 0.001,5.453 0.001,0.001C0.001,-5.452 -4.419,-9.872 -9.872,-9.872" style="fill:rgb(251,108,93);fill-rule:nonzero;"/>
    </g>
    <g transform="matrix(0,-1,-1,0,471.809,418.413)">
        <path d="M-9.872,-9.872C-15.325,-9.872 -19.746,-5.452 -19.746,0.001C-19.746,5.453 -15.325,9.872 -9.872,9.872C-4.42,9.872 0.001,5.453 0.001,0.001C0.001,-5.452 -4.42,-9.872 -9.872,-9.872" style="fill:rgb(251,108,93);fill-rule:nonzero;"/>
    </g>
    <g transform="matrix(0,-1,-1,0,482,413.954)">
        <path d="M-9.873,-9.873C-15.326,-9.873 -19.746,-5.453 -19.746,0C-19.746,5.452 -15.326,9.873 -9.873,9.873C-4.42,9.873 0,5.452 0,0C0,-5.453 -4.42,-9.873 -9.873,-9.873" style="fill:rgb(251,108,93);fill-rule:nonzero;"/>
    </g>
    <g transform="matrix(0,-1,-1,0,482,443.253)">
        <path d="M-9.873,-9.873C-15.326,-9.873 -19.746,-5.453 -19.746,0C-19.746,5.452 -15.326,9.873 -9.873,9.873C-4.42,9.873 0,5.452 0,0C0,-5.453 -4.42,-9.873 -9.873,-9.873" style="fill:rgb(251,108,93);fill-rule:nonzero;"/>
    </g>
    <g transform="matrix(1,0,0,1,-183.511,-184.403)">
        <g opacity="0.1">
            <g transform="matrix(0,-1,-1,0,665.511,611.414)">
                <path d="M-11.465,-11.465C-17.797,-11.465 -22.93,-6.332 -22.93,0C-22.93,6.332 -17.797,11.465 -11.465,11.465C-5.133,11.465 0,6.332 0,0C0,-6.332 -5.133,-11.465 -11.465,-11.465" style="fill-rule:nonzero;"/>
            </g>
        </g>
    </g>
    <g transform="matrix(0,-1,-1,0,482,428.604)">
        <path d="M-9.873,-9.873C-15.325,-9.873 -19.746,-5.453 -19.746,0C-19.746,5.452 -15.325,9.873 -9.873,9.873C-4.42,9.873 0,5.452 0,0C0,-5.453 -4.42,-9.873 -9.873,-9.873" style="fill:rgb(246,200,86);fill-rule:nonzero;"/>
    </g>
    <g transform="matrix(0.707107,-0.707107,-0.707107,-0.707107,406,443.054)">
        <path d="M-4.27,10.308L24.886,10.308" style="fill:none;fill-rule:nonzero;"/>
    </g>
    <g transform="matrix(0.707107,0.707107,0.707107,-0.707107,406,413.989)">
        <path d="M-4.243,-10.244L24.731,-10.244" style="fill:none;fill-rule:nonzero;"/>
    </g>
    <g transform="matrix(0,-1,-1,0,391.032,418.604)">
        <path d="M-9.872,-9.872C-15.324,-9.872 -19.746,-5.452 -19.746,0.001C-19.746,5.453 -15.324,9.872 -9.872,9.872C-4.419,9.872 0.001,5.453 0.001,0.001C0.001,-5.452 -4.419,-9.872 -9.872,-9.872" style="fill:rgb(251,108,93);fill-rule:nonzero;"/>
    </g>
    <g transform="matrix(0,-1,-1,0,420.968,418.604)">
        <path d="M-9.872,-9.872C-15.324,-9.872 -19.746,-5.452 -19.746,0.001C-19.746,5.453 -15.324,9.872 -9.872,9.872C-4.419,9.872 0.001,5.453 0.001,0.001C0.001,-5.452 -4.419,-9.872 -9.872,-9.872" style="fill:rgb(251,108,93);fill-rule:nonzero;"/>
    </g>
    <g transform="matrix(0,-1,-1,0,416.191,408.413)">
        <path d="M-9.872,-9.872C-15.325,-9.872 -19.746,-5.452 -19.746,0.001C-19.746,5.453 -15.325,9.872 -9.872,9.872C-4.42,9.872 0.001,5.453 0.001,0.001C0.001,-5.452 -4.42,-9.872 -9.872,-9.872" style="fill:rgb(251,108,93);fill-rule:nonzero;"/>
    </g>
    <g transform="matrix(0,-1,-1,0,416.191,428.795)">
        <path d="M-9.872,-9.872C-15.325,-9.872 -19.746,-5.452 -19.746,0.001C-19.746,5.453 -15.325,9.872 -9.872,9.872C-4.419,9.872 0.001,5.453 0.001,0.001C0.001,-5.452 -4.419,-9.872 -9.872,-9.872" style="fill:rgb(251,108,93);fill-rule:nonzero;"/>
    </g>
    <g transform="matrix(0,-1,-1,0,395.809,428.795)">
        <path d="M-9.872,-9.872C-15.325,-9.872 -19.746,-5.452 -19.746,0.001C-19.746,5.453 -15.325,9.872 -9.872,9.872C-4.419,9.872 0.001,5.453 0.001,0.001C0.001,-5.452 -4.419,-9.872 -9.872,-9.872" style="fill:rgb(251,108,93);fill-rule:nonzero;"/>
    </g>
    <g transform="matrix(0,-1,-1,0,395.809,408.413)">
        <path d="M-9.872,-9.872C-15.325,-9.872 -19.746,-5.452 -19.746,0.001C-19.746,5.453 -15.325,9.872 -9.872,9.872C-4.42,9.872 0.001,5.453 0.001,0.001C0.001,-5.452 -4.42,-9.872 -9.872,-9.872" style="fill:rgb(251,108,93);fill-rule:nonzero;"/>
    </g>
    <g transform="matrix(0,-1,-1,0,406,403.954)">
        <path d="M-9.873,-9.873C-15.326,-9.873 -19.746,-5.453 -19.746,0C-19.746,5.452 -15.326,9.873 -9.873,9.873C-4.42,9.873 0,5.452 0,0C0,-5.453 -4.42,-9.873 -9.873,-9.873" style="fill:rgb(251,108,93);fill-rule:nonzero;"/>
    </g>
    <g transform="matrix(0,-1,-1,0,406,433.253)">
        <path d="M-9.873,-9.873C-15.326,-9.873 -19.746,-5.453 -19.746,0C-19.746,5.452 -15.326,9.873 -9.873,9.873C-4.42,9.873 0,5.452 0,0C0,-5.453 -4.42,-9.873 -9.873,-9.873" style="fill:rgb(251,108,93);fill-rule:nonzero;"/>
    </g>
    <g transform="matrix(1,0,0,1,-183.511,-184.403)">
        <g opacity="0.1">
            <g transform="matrix(0,-1,-1,0,589.511,601.414)">
                <path d="M-11.465,-11.465C-17.797,-11.465 -22.93,-6.332 -22.93,0C-22.93,6.332 -17.797,11.465 -11.465,11.465C-5.133,11.465 0,6.332 0,0C0,-6.332 -5.133,-11.465 -11.465,-11.465" style="fill-rule:nonzero;"/>
            </g>
        </g>
    </g>
    <g transform="matrix(0,-1,-1,0,406,418.604)">
        <path d="M-9.873,-9.873C-15.325,-9.873 -19.746,-5.453 -19.746,0C-19.746,5.452 -15.325,9.873 -9.873,9.873C-4.42,9.873 0,5.452 0,0C0,-5.453 -4.42,-9.873 -9.873,-9.873" style="fill:rgb(246,200,86);fill-rule:nonzero;"/>
    </g>
    <g transform="matrix(0,-1,-1,0,226.032,408.649)">
        <path d="M-9.872,-9.872C-15.325,-9.872 -19.746,-5.452 -19.746,0.001C-19.746,5.453 -15.325,9.872 -9.872,9.872C-4.419,9.872 0.001,5.453 0.001,0.001C0.001,-5.452 -4.419,-9.872 -9.872,-9.872" style="fill:white;fill-rule:nonzero;"/>
    </g>
    <g transform="matrix(0,-1,-1,0,255.968,408.649)">
        <path d="M-9.872,-9.872C-15.325,-9.872 -19.746,-5.452 -19.746,0.001C-19.746,5.453 -15.325,9.872 -9.872,9.872C-4.419,9.872 0.001,5.453 0.001,0.001C0.001,-5.452 -4.419,-9.872 -9.872,-9.872" style="fill:white;fill-rule:nonzero;"/>
    </g>
    <g transform="matrix(0,-1,-1,0,251.191,398.458)">
        <path d="M-9.872,-9.872C-15.324,-9.872 -19.746,-5.452 -19.746,0.001C-19.746,5.453 -15.324,9.872 -9.872,9.872C-4.419,9.872 0.001,5.453 0.001,0.001C0.001,-5.452 -4.419,-9.872 -9.872,-9.872" style="fill:white;fill-rule:nonzero;"/>
    </g>
    <g transform="matrix(0,-1,-1,0,251.191,418.84)">
        <path d="M-9.872,-9.872C-15.325,-9.872 -19.746,-5.452 -19.746,0.001C-19.746,5.453 -15.325,9.872 -9.872,9.872C-4.42,9.872 0.001,5.453 0.001,0.001C0.001,-5.452 -4.42,-9.872 -9.872,-9.872" style="fill:white;fill-rule:nonzero;"/>
    </g>
    <g transform="matrix(0,-1,-1,0,230.809,418.84)">
        <path d="M-9.872,-9.872C-15.325,-9.872 -19.746,-5.452 -19.746,0.001C-19.746,5.453 -15.325,9.872 -9.872,9.872C-4.42,9.872 0.001,5.453 0.001,0.001C0.001,-5.452 -4.42,-9.872 -9.872,-9.872" style="fill:white;fill-rule:nonzero;"/>
    </g>
    <g transform="matrix(0,-1,-1,0,230.809,398.458)">
        <path d="M-9.872,-9.872C-15.324,-9.872 -19.746,-5.452 -19.746,0.001C-19.746,5.453 -15.324,9.872 -9.872,9.872C-4.419,9.872 0.001,5.453 0.001,0.001C0.001,-5.452 -4.419,-9.872 -9.872,-9.872" style="fill:white;fill-rule:nonzero;"/>
    </g>
    <g transform="matrix(0,-1,-1,0,241,393.998)">
        <path d="M-9.873,-9.873C-15.326,-9.873 -19.746,-5.453 -19.746,0C-19.746,5.452 -15.326,9.873 -9.873,9.873C-4.421,9.873 0,5.452 0,0C0,-5.453 -4.421,-9.873 -9.873,-9.873" style="fill:white;fill-rule:nonzero;"/>
    </g>
    <g transform="matrix(0,-1,-1,0,241,423.298)">
        <path d="M-9.873,-9.873C-15.325,-9.873 -19.746,-5.453 -19.746,0C-19.746,5.452 -15.325,9.873 -9.873,9.873C-4.42,9.873 0,5.452 0,0C0,-5.453 -4.42,-9.873 -9.873,-9.873" style="fill:white;fill-rule:nonzero;"/>
    </g>
    <g transform="matrix(1,0,0,1,-183.511,-184.403)">
        <g opacity="0.1">
            <g transform="matrix(0,-1,-1,0,424.511,591.459)">
                <path d="M-11.465,-11.465C-17.797,-11.465 -22.93,-6.332 -22.93,0C-22.93,6.332 -17.797,11.465 -11.465,11.465C-5.133,11.465 0,6.332 0,0C0,-6.332 -5.133,-11.465 -11.465,-11.465" style="fill-rule:nonzero;"/>
            </g>
        </g>
    </g>
    <g transform="matrix(0,-1,-1,0,241,408.648)">
        <path d="M-9.873,-9.873C-15.326,-9.873 -19.746,-5.453 -19.746,0C-19.746,5.452 -15.326,9.873 -9.873,9.873C-4.42,9.873 0,5.452 0,0C0,-5.453 -4.42,-9.873 -9.873,-9.873" style="fill:rgb(246,200,86);fill-rule:nonzero;"/>
    </g>
    <g transform="matrix(0.707124,-0.70709,-0.70709,-0.707124,562.999,400.099)">
        <path d="M-4.269,10.308L24.885,10.307" style="fill:none;fill-rule:nonzero;"/>
    </g>
    <g transform="matrix(0.707107,0.707107,0.707107,-0.707107,563,371.034)">
        <path d="M-4.243,-10.244L24.731,-10.244" style="fill:none;fill-rule:nonzero;"/>
    </g>
    <g transform="matrix(0,-1,-1,0,548.032,375.649)">
        <path d="M-9.872,-9.872C-15.325,-9.872 -19.746,-5.452 -19.746,0.001C-19.746,5.453 -15.325,9.872 -9.872,9.872C-4.419,9.872 0.001,5.453 0.001,0.001C0.001,-5.452 -4.419,-9.872 -9.872,-9.872" style="fill:white;fill-rule:nonzero;"/>
    </g>
    <g transform="matrix(0,-1,-1,0,577.968,375.649)">
        <path d="M-9.872,-9.872C-15.325,-9.872 -19.746,-5.452 -19.746,0.001C-19.746,5.453 -15.325,9.872 -9.872,9.872C-4.419,9.872 0.001,5.453 0.001,0.001C0.001,-5.452 -4.419,-9.872 -9.872,-9.872" style="fill:white;fill-rule:nonzero;"/>
    </g>
    <g transform="matrix(0,-1,-1,0,573.191,365.458)">
        <path d="M-9.872,-9.872C-15.324,-9.872 -19.746,-5.452 -19.746,0.001C-19.746,5.453 -15.324,9.872 -9.872,9.872C-4.419,9.872 0.001,5.453 0.001,0.001C0.001,-5.452 -4.419,-9.872 -9.872,-9.872" style="fill:white;fill-rule:nonzero;"/>
    </g>
    <g transform="matrix(0,-1,-1,0,573.191,385.84)">
        <path d="M-9.872,-9.872C-15.325,-9.872 -19.746,-5.452 -19.746,0.001C-19.746,5.453 -15.325,9.872 -9.872,9.872C-4.42,9.872 0.001,5.453 0.001,0.001C0.001,-5.452 -4.42,-9.872 -9.872,-9.872" style="fill:white;fill-rule:nonzero;"/>
    </g>
    <g transform="matrix(0,-1,-1,0,552.809,385.84)">
        <path d="M-9.872,-9.872C-15.325,-9.872 -19.746,-5.452 -19.746,0.001C-19.746,5.453 -15.325,9.872 -9.872,9.872C-4.42,9.872 0.001,5.453 0.001,0.001C0.001,-5.452 -4.42,-9.872 -9.872,-9.872" style="fill:white;fill-rule:nonzero;"/>
    </g>
    <g transform="matrix(0,-1,-1,0,552.809,365.458)">
        <path d="M-9.872,-9.872C-15.324,-9.872 -19.746,-5.452 -19.746,0.001C-19.746,5.453 -15.324,9.872 -9.872,9.872C-4.419,9.872 0.001,5.453 0.001,0.001C0.001,-5.452 -4.419,-9.872 -9.872,-9.872" style="fill:white;fill-rule:nonzero;"/>
    </g>
    <g transform="matrix(0,-1,-1,0,563,360.998)">
        <path d="M-9.873,-9.873C-15.326,-9.873 -19.746,-5.453 -19.746,0C-19.746,5.452 -15.326,9.873 -9.873,9.873C-4.421,9.873 0,5.452 0,0C0,-5.453 -4.421,-9.873 -9.873,-9.873" style="fill:white;fill-rule:nonzero;"/>
    </g>
    <g transform="matrix(0,-1,-1,0,563,390.298)">
        <path d="M-9.873,-9.873C-15.325,-9.873 -19.746,-5.453 -19.746,0C-19.746,5.452 -15.325,9.873 -9.873,9.873C-4.42,9.873 0,5.452 0,0C0,-5.453 -4.42,-9.873 -9.873,-9.873" style="fill:white;fill-rule:nonzero;"/>
    </g>
    <g transform="matrix(1,0,0,1,-183.511,-184.403)">
        <g opacity="0.1">
            <g transform="matrix(0,-1,-1,0,746.511,558.459)">
                <path d="M-11.465,-11.465C-17.797,-11.465 -22.93,-6.332 -22.93,0C-22.93,6.332 -17.797,11.465 -11.465,11.465C-5.133,11.465 0,6.332 0,0C0,-6.332 -5.133,-11.465 -11.465,-11.465" style="fill-rule:nonzero;"/>
            </g>
        </g>
    </g>
    <g transform="matrix(0,-1,-1,0,563,375.648)">
        <path d="M-9.873,-9.873C-15.326,-9.873 -19.746,-5.453 -19.746,0C-19.746,5.452 -15.326,9.873 -9.873,9.873C-4.42,9.873 0,5.452 0,0C0,-5.453 -4.42,-9.873 -9.873,-9.873" style="fill:rgb(246,200,86);fill-rule:nonzero;"/>
    </g>
    <g transform="matrix(0,-1,-1,0,323.032,376.649)">
        <path d="M-9.872,-9.872C-15.325,-9.872 -19.746,-5.452 -19.746,0.001C-19.746,5.453 -15.325,9.872 -9.872,9.872C-4.419,9.872 0.001,5.453 0.001,0.001C0.001,-5.452 -4.419,-9.872 -9.872,-9.872" style="fill:white;fill-rule:nonzero;"/>
    </g>
    <g transform="matrix(0,-1,-1,0,352.968,376.649)">
        <path d="M-9.872,-9.872C-15.325,-9.872 -19.746,-5.452 -19.746,0.001C-19.746,5.453 -15.325,9.872 -9.872,9.872C-4.419,9.872 0.001,5.453 0.001,0.001C0.001,-5.452 -4.419,-9.872 -9.872,-9.872" style="fill:white;fill-rule:nonzero;"/>
    </g>
    <g transform="matrix(0,-1,-1,0,348.191,366.458)">
        <path d="M-9.872,-9.872C-15.324,-9.872 -19.746,-5.452 -19.746,0.001C-19.746,5.453 -15.324,9.872 -9.872,9.872C-4.419,9.872 0.001,5.453 0.001,0.001C0.001,-5.452 -4.419,-9.872 -9.872,-9.872" style="fill:white;fill-rule:nonzero;"/>
    </g>
    <g transform="matrix(0,-1,-1,0,348.191,386.84)">
        <path d="M-9.872,-9.872C-15.325,-9.872 -19.746,-5.452 -19.746,0.001C-19.746,5.453 -15.325,9.872 -9.872,9.872C-4.42,9.872 0.001,5.453 0.001,0.001C0.001,-5.452 -4.42,-9.872 -9.872,-9.872" style="fill:white;fill-rule:nonzero;"/>
    </g>
    <g transform="matrix(0,-1,-1,0,327.809,386.84)">
        <path d="M-9.872,-9.872C-15.325,-9.872 -19.746,-5.452 -19.746,0.001C-19.746,5.453 -15.325,9.872 -9.872,9.872C-4.42,9.872 0.001,5.453 0.001,0.001C0.001,-5.452 -4.42,-9.872 -9.872,-9.872" style="fill:white;fill-rule:nonzero;"/>
    </g>
    <g transform="matrix(0,-1,-1,0,327.809,366.458)">
        <path d="M-9.872,-9.872C-15.324,-9.872 -19.746,-5.452 -19.746,0.001C-19.746,5.453 -15.324,9.872 -9.872,9.872C-4.419,9.872 0.001,5.453 0.001,0.001C0.001,-5.452 -4.419,-9.872 -9.872,-9.872" style="fill:white;fill-rule:nonzero;"/>
    </g>
    <g transform="matrix(0,-1,-1,0,338,361.998)">
        <path d="M-9.873,-9.873C-15.326,-9.873 -19.746,-5.453 -19.746,0C-19.746,5.452 -15.326,9.873 -9.873,9.873C-4.421,9.873 0,5.452 0,0C0,-5.453 -4.421,-9.873 -9.873,-9.873" style="fill:white;fill-rule:nonzero;"/>
    </g>
    <g transform="matrix(0,-1,-1,0,338,391.298)">
        <path d="M-9.873,-9.873C-15.325,-9.873 -19.746,-5.453 -19.746,0C-19.746,5.452 -15.325,9.873 -9.873,9.873C-4.42,9.873 0,5.452 0,0C0,-5.453 -4.42,-9.873 -9.873,-9.873" style="fill:white;fill-rule:nonzero;"/>
    </g>
    <g transform="matrix(1,0,0,1,-183.511,-184.403)">
        <g opacity="0.1">
            <g transform="matrix(0,-1,-1,0,521.511,559.459)">
                <path d="M-11.465,-11.465C-17.797,-11.465 -22.93,-6.332 -22.93,0C-22.93,6.332 -17.797,11.465 -11.465,11.465C-5.133,11.465 0,6.332 0,0C0,-6.332 -5.133,-11.465 -11.465,-11.465" style="fill-rule:nonzero;"/>
            </g>
        </g>
    </g>
    <g transform="matrix(0,-1,-1,0,338,376.648)">
        <path d="M-9.873,-9.873C-15.326,-9.873 -19.746,-5.453 -19.746,0C-19.746,5.452 -15.326,9.873 -9.873,9.873C-4.42,9.873 0,5.452 0,0C0,-5.453 -4.42,-9.873 -9.873,-9.873" style="fill:rgb(246,200,86);fill-rule:nonzero;"/>
    </g>
    <g transform="matrix(0.707124,-0.70709,-0.70709,-0.707124,378.999,468.099)">
        <path d="M-4.269,10.308L24.885,10.307" style="fill:none;fill-rule:nonzero;"/>
    </g>
    <g transform="matrix(0.707107,0.707107,0.707107,-0.707107,379,439.034)">
        <path d="M-4.243,-10.244L24.731,-10.244" style="fill:none;fill-rule:nonzero;"/>
    </g>
    <g transform="matrix(0,-1,-1,0,364.032,443.649)">
        <path d="M-9.872,-9.872C-15.325,-9.872 -19.746,-5.452 -19.746,0.001C-19.746,5.453 -15.325,9.872 -9.872,9.872C-4.419,9.872 0.001,5.453 0.001,0.001C0.001,-5.452 -4.419,-9.872 -9.872,-9.872" style="fill:white;fill-rule:nonzero;"/>
    </g>
    <g transform="matrix(0,-1,-1,0,393.968,443.649)">
        <path d="M-9.872,-9.872C-15.325,-9.872 -19.746,-5.452 -19.746,0.001C-19.746,5.453 -15.325,9.872 -9.872,9.872C-4.419,9.872 0.001,5.453 0.001,0.001C0.001,-5.452 -4.419,-9.872 -9.872,-9.872" style="fill:white;fill-rule:nonzero;"/>
    </g>
    <g transform="matrix(0,-1,-1,0,389.191,433.458)">
        <path d="M-9.872,-9.872C-15.324,-9.872 -19.746,-5.452 -19.746,0.001C-19.746,5.453 -15.324,9.872 -9.872,9.872C-4.419,9.872 0.001,5.453 0.001,0.001C0.001,-5.452 -4.419,-9.872 -9.872,-9.872" style="fill:white;fill-rule:nonzero;"/>
    </g>
    <g transform="matrix(0,-1,-1,0,389.191,453.84)">
        <path d="M-9.872,-9.872C-15.325,-9.872 -19.746,-5.452 -19.746,0.001C-19.746,5.453 -15.325,9.872 -9.872,9.872C-4.42,9.872 0.001,5.453 0.001,0.001C0.001,-5.452 -4.42,-9.872 -9.872,-9.872" style="fill:white;fill-rule:nonzero;"/>
    </g>
    <g transform="matrix(0,-1,-1,0,368.809,453.84)">
        <path d="M-9.872,-9.872C-15.325,-9.872 -19.746,-5.452 -19.746,0.001C-19.746,5.453 -15.325,9.872 -9.872,9.872C-4.42,9.872 0.001,5.453 0.001,0.001C0.001,-5.452 -4.42,-9.872 -9.872,-9.872" style="fill:white;fill-rule:nonzero;"/>
    </g>
    <g transform="matrix(0,-1,-1,0,368.809,433.458)">
        <path d="M-9.872,-9.872C-15.324,-9.872 -19.746,-5.452 -19.746,0.001C-19.746,5.453 -15.324,9.872 -9.872,9.872C-4.419,9.872 0.001,5.453 0.001,0.001C0.001,-5.452 -4.419,-9.872 -9.872,-9.872" style="fill:white;fill-rule:nonzero;"/>
    </g>
    <g transform="matrix(0,-1,-1,0,379,428.998)">
        <path d="M-9.873,-9.873C-15.326,-9.873 -19.746,-5.453 -19.746,0C-19.746,5.452 -15.326,9.873 -9.873,9.873C-4.421,9.873 0,5.452 0,0C0,-5.453 -4.421,-9.873 -9.873,-9.873" style="fill:white;fill-rule:nonzero;"/>
    </g>
    <g transform="matrix(0,-1,-1,0,379,458.298)">
        <path d="M-9.873,-9.873C-15.325,-9.873 -19.746,-5.453 -19.746,0C-19.746,5.452 -15.325,9.873 -9.873,9.873C-4.42,9.873 0,5.452 0,0C0,-5.453 -4.42,-9.873 -9.873,-9.873" style="fill:white;fill-rule:nonzero;"/>
    </g>
    <g transform="matrix(1,0,0,1,-183.511,-184.403)">
        <g opacity="0.1">
            <g transform="matrix(0,-1,-1,0,562.511,626.459)">
                <path d="M-11.465,-11.465C-17.797,-11.465 -22.93,-6.332 -22.93,0C-22.93,6.332 -17.797,11.465 -11.465,11.465C-5.133,11.465 0,6.332 0,0C0,-6.332 -5.133,-11.465 -11.465,-11.465" style="fill-rule:nonzero;"/>
            </g>
        </g>
    </g>
    <g transform="matrix(0,-1,-1,0,379,443.648)">
        <path d="M-9.873,-9.873C-15.326,-9.873 -19.746,-5.453 -19.746,0C-19.746,5.452 -15.326,9.873 -9.873,9.873C-4.42,9.873 0,5.452 0,0C0,-5.453 -4.42,-9.873 -9.873,-9.873" style="fill:rgb(246,200,86);fill-rule:nonzero;"/>
    </g>
    <g transform="matrix(0,-1,-1,0,141,418.648)">
        <path d="M-9.873,-9.873C-15.326,-9.873 -19.746,-5.453 -19.746,0C-19.746,5.452 -15.326,9.873 -9.873,9.873C-4.42,9.873 0,5.452 0,0C0,-5.453 -4.42,-9.873 -9.873,-9.873" style="fill:rgb(246,200,86);fill-rule:nonzero;"/>
    </g>
</svg>
