<?xml version="1.0" encoding="UTF-8" standalone="no"?>
<!DOCTYPE svg PUBLIC "-//W3C//DTD SVG 1.1//EN" "http://www.w3.org/Graphics/SVG/1.1/DTD/svg11.dtd">
<svg width="100%" height="100%" viewBox="0 0 1920 1660" version="1.1" xmlns="http://www.w3.org/2000/svg" xmlns:xlink="http://www.w3.org/1999/xlink" xml:space="preserve" xmlns:serif="http://www.serif.com/" style="fill-rule:evenodd;clip-rule:evenodd;stroke-linejoin:round;stroke-miterlimit:2;">
    <g id="Livello-1" serif:id="Livello 1" transform="matrix(0.962222,0,0,0.962222,6.86996,-69.6207)">
        <g opacity="0.1">
            <g opacity="0.4">
                <g transform="matrix(1,0,0,1,1487.58,183.989)">
                    <path d="M0,80.316L-177.099,80.316L-177.099,9.839L-167.036,0L0,9.839L10.063,70.436L0,80.316Z" style="fill-rule:nonzero;"/>
                </g>
            </g>
            <g transform="matrix(-1,0,0,1,2818.19,-1562.68)">
                <rect x="1320.55" y="1746.1" width="177.099" height="70.477" style="fill:rgb(251,108,93);"/>
            </g>
            <g opacity="0.4">
                <g transform="matrix(1,0,0,1,1578.14,254.426)">
                    <path d="M0,80.316L-177.099,80.316L-177.099,9.839L-167.036,0L0,9.839L10.063,70.436L0,80.316Z" style="fill-rule:nonzero;"/>
                </g>
            </g>
            <g transform="matrix(-1,0,0,1,2999.31,-1421.8)">
                <rect x="1411.11" y="1675.66" width="177.099" height="70.477" style="fill:rgb(251,108,93);"/>
            </g>
            <g opacity="0.4">
                <g transform="matrix(1,0,0,1,1578.14,439.573)">
                    <path d="M0,80.317L-177.099,80.317L-177.099,9.84L-167.036,0L0,9.84L10.063,70.437L0,80.317Z" style="fill-rule:nonzero;"/>
                </g>
            </g>
            <g transform="matrix(-1,0,0,1,2999.31,-1051.51)">
                <rect x="1411.11" y="1490.52" width="177.099" height="70.477" style="fill:rgb(251,108,93);"/>
            </g>
            <g opacity="0.4">
                <g transform="matrix(1,0,0,1,1940.39,340.961)">
                    <path d="M0,80.317L-177.098,80.317L-177.098,9.84L-167.035,0L0,9.84L10.063,70.437L0,80.317Z" style="fill-rule:nonzero;"/>
                </g>
            </g>
            <g transform="matrix(1,0,0,1,0,-1248.73)">
                <rect x="1773.35" y="1589.13" width="177.098" height="70.476" style="fill:rgb(251,108,93);"/>
            </g>
            <g opacity="0.4">
                <g transform="matrix(1,0,0,1,1765.3,105.502)">
                    <path d="M0,80.316L-177.098,80.316L-177.098,9.839L-167.036,0L0,9.839L10.063,70.436L0,80.316Z" style="fill-rule:nonzero;"/>
                </g>
            </g>
            <g transform="matrix(1,0,0,1,0,-1719.65)">
                <rect x="1598.27" y="1824.59" width="177.098" height="70.477" style="fill:rgb(251,108,93);"/>
            </g>
            <g opacity="0.4">
                <g transform="matrix(1,0,0,1,1487.58,598.942)">
                    <path d="M0,80.316L-177.099,80.316L-177.099,9.839L-167.036,0L0,9.839L10.063,70.436L0,80.316Z" style="fill-rule:nonzero;"/>
                </g>
            </g>
            <g transform="matrix(-1,0,0,1,2818.19,-732.771)">
                <rect x="1320.55" y="1331.15" width="177.099" height="70.477" style="fill:rgb(251,108,93);"/>
            </g>
            <g opacity="0.4">
                <g transform="matrix(1,0,0,1,1578.14,669.378)">
                    <path d="M0,80.317L-177.099,80.317L-177.099,9.84L-167.036,0L0,9.84L10.063,70.437L0,80.317Z" style="fill-rule:nonzero;"/>
                </g>
            </g>
            <g transform="matrix(-1,0,0,1,2999.31,-591.897)">
                <rect x="1411.11" y="1260.71" width="177.099" height="70.477" style="fill:rgb(251,108,93);"/>
            </g>
            <g opacity="0.4">
                <g transform="matrix(1,0,0,1,1578.14,854.526)">
                    <path d="M0,80.316L-177.099,80.316L-177.099,9.839L-167.036,0L0,9.839L10.063,70.437L0,80.316Z" style="fill-rule:nonzero;"/>
                </g>
            </g>
            <g transform="matrix(-1,0,0,1,2999.31,-221.603)">
                <rect x="1411.11" y="1075.56" width="177.099" height="70.477" style="fill:rgb(251,108,93);"/>
            </g>
            <g opacity="0.4">
                <g transform="matrix(1,0,0,1,1940.39,755.915)">
                    <path d="M0,80.316L-177.098,80.316L-177.098,9.839L-167.035,0L0,9.839L10.063,70.436L0,80.316Z" style="fill-rule:nonzero;"/>
                </g>
            </g>
            <g transform="matrix(1,0,0,1,0,-418.824)">
                <rect x="1773.35" y="1174.17" width="177.098" height="70.476" style="fill:rgb(251,108,93);"/>
            </g>
            <g opacity="0.4">
                <g transform="matrix(1,0,0,1,1765.3,520.455)">
                    <path d="M0,80.316L-177.098,80.316L-177.098,9.839L-167.036,0L0,9.839L10.063,70.436L0,80.316Z" style="fill-rule:nonzero;"/>
                </g>
            </g>
            <g transform="matrix(1,0,0,1,0,-889.743)">
                <rect x="1598.27" y="1409.63" width="177.098" height="70.477" style="fill:rgb(251,108,93);"/>
            </g>
            <g opacity="0.4">
                <g transform="matrix(1,0,0,1,1487.58,1013.89)">
                    <path d="M0,80.316L-177.099,80.316L-177.099,9.839L-167.036,0L0,9.839L10.063,70.436L0,80.316Z" style="fill-rule:nonzero;"/>
                </g>
            </g>
            <g transform="matrix(-1,0,0,1,2818.19,97.135)">
                <rect x="1320.55" y="916.194" width="177.099" height="70.477" style="fill:rgb(251,108,93);"/>
            </g>
            <g opacity="0.4">
                <g transform="matrix(1,0,0,1,1578.14,1084.33)">
                    <path d="M0,80.316L-177.099,80.316L-177.099,9.839L-167.036,0L0,9.839L10.063,70.436L0,80.316Z" style="fill-rule:nonzero;"/>
                </g>
            </g>
            <g transform="matrix(-1,0,0,1,2999.31,238.007)">
                <rect x="1411.11" y="845.758" width="177.099" height="70.477" style="fill:rgb(251,108,93);"/>
            </g>
            <g opacity="0.4">
                <g transform="matrix(1,0,0,1,1578.14,1269.48)">
                    <path d="M0,80.316L-177.099,80.316L-177.099,9.839L-167.036,0L0,9.839L10.063,70.437L0,80.316Z" style="fill-rule:nonzero;"/>
                </g>
            </g>
            <g transform="matrix(-1,0,0,1,2999.31,608.304)">
                <rect x="1411.11" y="660.609" width="177.099" height="70.478" style="fill:rgb(251,108,93);"/>
            </g>
            <g opacity="0.4">
                <g transform="matrix(1,0,0,1,1940.39,1170.87)">
                    <path d="M0,80.316L-177.098,80.316L-177.098,9.839L-167.035,0L0,9.839L10.063,70.436L0,80.316Z" style="fill-rule:nonzero;"/>
                </g>
            </g>
            <g transform="matrix(1,0,0,1,0,411.081)">
                <rect x="1773.35" y="759.221" width="177.098" height="70.477" style="fill:rgb(251,108,93);"/>
            </g>
            <g opacity="0.4">
                <g transform="matrix(1,0,0,1,1765.3,935.408)">
                    <path d="M0,80.317L-177.098,80.317L-177.098,9.84L-167.036,0L0,9.84L10.063,70.437L0,80.317Z" style="fill-rule:nonzero;"/>
                </g>
            </g>
            <g transform="matrix(1,0,0,1,0,-59.838)">
                <rect x="1598.27" y="994.681" width="177.098" height="70.476" style="fill:rgb(251,108,93);"/>
            </g>
            <g opacity="0.4">
                <g transform="matrix(1,0,0,1,1487.58,1428.85)">
                    <path d="M0,80.316L-177.099,80.316L-177.099,9.838L-167.036,0L0,9.838L10.063,70.436L0,80.316Z" style="fill-rule:nonzero;"/>
                </g>
            </g>
            <g transform="matrix(-1,0,0,1,2818.19,927.041)">
                <rect x="1320.55" y="501.241" width="177.099" height="70.477" style="fill:rgb(251,108,93);"/>
            </g>
            <g opacity="0.4">
                <g transform="matrix(1,0,0,1,1578.14,1499.28)">
                    <path d="M0,80.316L-177.099,80.316L-177.099,9.839L-167.036,0L0,9.839L10.063,70.436L0,80.316Z" style="fill-rule:nonzero;"/>
                </g>
            </g>
            <g transform="matrix(-1,0,0,1,2999.31,1067.91)">
                <rect x="1411.11" y="430.805" width="177.099" height="70.477" style="fill:rgb(251,108,93);"/>
            </g>
            <g opacity="0.4">
                <g transform="matrix(1,0,0,1,1578.14,1684.43)">
                    <path d="M0,80.316L-177.099,80.316L-177.099,9.839L-167.036,0L0,9.839L10.063,70.436L0,80.316Z" style="fill-rule:nonzero;"/>
                </g>
            </g>
            <g transform="matrix(-1,0,0,1,2999.31,1438.21)">
                <rect x="1411.11" y="245.656" width="177.099" height="70.478" style="fill:rgb(251,108,93);"/>
            </g>
            <g opacity="0.4">
                <g transform="matrix(1,0,0,1,1940.39,1585.82)">
                    <path d="M0,80.316L-177.098,80.316L-177.098,9.839L-167.035,0L0,9.839L10.063,70.436L0,80.316Z" style="fill-rule:nonzero;"/>
                </g>
            </g>
            <g transform="matrix(1,0,0,1,0,1240.99)">
                <rect x="1773.35" y="344.268" width="177.098" height="70.477" style="fill:rgb(251,108,93);"/>
            </g>
            <g opacity="0.4">
                <g transform="matrix(1,0,0,1,1765.3,1350.36)">
                    <path d="M0,80.317L-177.098,80.317L-177.098,9.839L-167.036,0L0,9.839L10.063,70.437L0,80.317Z" style="fill-rule:nonzero;"/>
                </g>
            </g>
            <g transform="matrix(1,0,0,1,0,770.068)">
                <rect x="1598.27" y="579.728" width="177.098" height="70.476" style="fill:rgb(251,108,93);"/>
            </g>
            <g opacity="0.4">
                <g transform="matrix(1,0,0,1,847.614,183.989)">
                    <path d="M0,80.316L-177.098,80.316L-177.098,9.839L-167.036,0L0,9.839L10.063,70.436L0,80.316Z" style="fill-rule:nonzero;"/>
                </g>
            </g>
            <g transform="matrix(-1,0,0,1,1538.26,-1562.68)">
                <rect x="680.579" y="1746.1" width="177.098" height="70.477" style="fill:rgb(251,108,93);"/>
            </g>
            <g opacity="0.4">
                <g transform="matrix(1,0,0,1,938.176,254.426)">
                    <path d="M0,80.316L-177.098,80.316L-177.098,9.839L-167.036,0L0,9.839L10.063,70.436L0,80.316Z" style="fill-rule:nonzero;"/>
                </g>
            </g>
            <g transform="matrix(-1,0,0,1,1719.38,-1421.8)">
                <rect x="771.14" y="1675.66" width="177.098" height="70.477" style="fill:rgb(251,108,93);"/>
            </g>
            <g opacity="0.4">
                <g transform="matrix(1,0,0,1,938.176,439.573)">
                    <path d="M0,80.317L-177.098,80.317L-177.098,9.84L-167.036,0L0,9.84L10.063,70.437L0,80.317Z" style="fill-rule:nonzero;"/>
                </g>
            </g>
            <g transform="matrix(-1,0,0,1,1719.38,-1051.51)">
                <rect x="771.14" y="1490.52" width="177.098" height="70.477" style="fill:rgb(251,108,93);"/>
            </g>
            <g opacity="0.4">
                <g transform="matrix(1,0,0,1,1300.42,340.961)">
                    <path d="M0,80.317L-177.099,80.317L-177.099,9.84L-167.036,0L0,9.84L10.062,70.437L0,80.317Z" style="fill-rule:nonzero;"/>
                </g>
            </g>
            <g transform="matrix(1,0,0,1,0,-1248.73)">
                <rect x="1133.38" y="1589.13" width="177.098" height="70.476" style="fill:rgb(251,108,93);"/>
            </g>
            <g opacity="0.4">
                <g transform="matrix(1,0,0,1,1125.34,105.502)">
                    <path d="M0,80.316L-177.098,80.316L-177.098,9.839L-167.035,0L0,9.839L10.063,70.436L0,80.316Z" style="fill-rule:nonzero;"/>
                </g>
            </g>
            <g transform="matrix(1,0,0,1,0,-1719.65)">
                <rect x="958.301" y="1824.59" width="177.097" height="70.477" style="fill:rgb(251,108,93);"/>
            </g>
            <g opacity="0.4">
                <g transform="matrix(1,0,0,1,847.614,598.942)">
                    <path d="M0,80.316L-177.098,80.316L-177.098,9.839L-167.036,0L0,9.839L10.063,70.436L0,80.316Z" style="fill-rule:nonzero;"/>
                </g>
            </g>
            <g transform="matrix(-1,0,0,1,1538.26,-732.771)">
                <rect x="680.579" y="1331.15" width="177.098" height="70.477" style="fill:rgb(251,108,93);"/>
            </g>
            <g opacity="0.4">
                <g transform="matrix(1,0,0,1,938.176,669.378)">
                    <path d="M0,80.317L-177.098,80.317L-177.098,9.84L-167.036,0L0,9.84L10.063,70.437L0,80.317Z" style="fill-rule:nonzero;"/>
                </g>
            </g>
            <g transform="matrix(-1,0,0,1,1719.38,-591.897)">
                <rect x="771.14" y="1260.71" width="177.098" height="70.477" style="fill:rgb(251,108,93);"/>
            </g>
            <g opacity="0.4">
                <g transform="matrix(1,0,0,1,938.176,854.526)">
                    <path d="M0,80.316L-177.098,80.316L-177.098,9.839L-167.036,0L0,9.839L10.063,70.437L0,80.316Z" style="fill-rule:nonzero;"/>
                </g>
            </g>
            <g transform="matrix(-1,0,0,1,1719.38,-221.603)">
                <rect x="771.14" y="1075.56" width="177.098" height="70.477" style="fill:rgb(251,108,93);"/>
            </g>
            <g opacity="0.4">
                <g transform="matrix(1,0,0,1,1300.42,755.915)">
                    <path d="M0,80.316L-177.099,80.316L-177.099,9.839L-167.036,0L0,9.839L10.062,70.436L0,80.316Z" style="fill-rule:nonzero;"/>
                </g>
            </g>
            <g transform="matrix(1,0,0,1,0,-418.824)">
                <rect x="1133.38" y="1174.17" width="177.098" height="70.476" style="fill:rgb(251,108,93);"/>
            </g>
            <g opacity="0.4">
                <g transform="matrix(1,0,0,1,1125.34,520.455)">
                    <path d="M0,80.316L-177.098,80.316L-177.098,9.839L-167.035,0L0,9.839L10.063,70.436L0,80.316Z" style="fill-rule:nonzero;"/>
                </g>
            </g>
            <g transform="matrix(1,0,0,1,0,-889.743)">
                <rect x="958.301" y="1409.63" width="177.097" height="70.477" style="fill:rgb(251,108,93);"/>
            </g>
            <g opacity="0.4">
                <g transform="matrix(1,0,0,1,847.614,1013.89)">
                    <path d="M0,80.316L-177.098,80.316L-177.098,9.839L-167.036,0L0,9.839L10.063,70.436L0,80.316Z" style="fill-rule:nonzero;"/>
                </g>
            </g>
            <g transform="matrix(-1,0,0,1,1538.26,97.135)">
                <rect x="680.579" y="916.194" width="177.098" height="70.477" style="fill:rgb(251,108,93);"/>
            </g>
            <g opacity="0.4">
                <g transform="matrix(1,0,0,1,938.176,1084.33)">
                    <path d="M0,80.316L-177.098,80.316L-177.098,9.839L-167.036,0L0,9.839L10.063,70.436L0,80.316Z" style="fill-rule:nonzero;"/>
                </g>
            </g>
            <g transform="matrix(-1,0,0,1,1719.38,238.007)">
                <rect x="771.14" y="845.758" width="177.098" height="70.477" style="fill:rgb(251,108,93);"/>
            </g>
            <g opacity="0.4">
                <g transform="matrix(1,0,0,1,938.176,1269.48)">
                    <path d="M0,80.316L-177.098,80.316L-177.098,9.839L-167.036,0L0,9.839L10.063,70.437L0,80.316Z" style="fill-rule:nonzero;"/>
                </g>
            </g>
            <g transform="matrix(-1,0,0,1,1719.38,608.304)">
                <rect x="771.14" y="660.609" width="177.098" height="70.478" style="fill:rgb(251,108,93);"/>
            </g>
            <g opacity="0.4">
                <g transform="matrix(1,0,0,1,1300.42,1170.87)">
                    <path d="M0,80.316L-177.099,80.316L-177.099,9.839L-167.036,0L0,9.839L10.062,70.436L0,80.316Z" style="fill-rule:nonzero;"/>
                </g>
            </g>
            <g transform="matrix(1,0,0,1,0,411.081)">
                <rect x="1133.38" y="759.221" width="177.098" height="70.477" style="fill:rgb(251,108,93);"/>
            </g>
            <g opacity="0.4">
                <g transform="matrix(1,0,0,1,1125.34,935.408)">
                    <path d="M0,80.317L-177.098,80.317L-177.098,9.84L-167.035,0L0,9.84L10.063,70.437L0,80.317Z" style="fill-rule:nonzero;"/>
                </g>
            </g>
            <g transform="matrix(1,0,0,1,0,-59.838)">
                <rect x="958.301" y="994.681" width="177.097" height="70.476" style="fill:rgb(251,108,93);"/>
            </g>
            <g opacity="0.4">
                <g transform="matrix(1,0,0,1,847.614,1428.85)">
                    <path d="M0,80.316L-177.098,80.316L-177.098,9.838L-167.036,0L0,9.838L10.063,70.436L0,80.316Z" style="fill-rule:nonzero;"/>
                </g>
            </g>
            <g transform="matrix(-1,0,0,1,1538.26,927.041)">
                <rect x="680.579" y="501.241" width="177.098" height="70.477" style="fill:rgb(251,108,93);"/>
            </g>
            <g opacity="0.4">
                <g transform="matrix(1,0,0,1,938.176,1499.28)">
                    <path d="M0,80.316L-177.098,80.316L-177.098,9.839L-167.036,0L0,9.839L10.063,70.436L0,80.316Z" style="fill-rule:nonzero;"/>
                </g>
            </g>
            <g transform="matrix(-1,0,0,1,1719.38,1067.91)">
                <rect x="771.14" y="430.805" width="177.098" height="70.477" style="fill:rgb(251,108,93);"/>
            </g>
            <g opacity="0.4">
                <g transform="matrix(1,0,0,1,938.176,1684.43)">
                    <path d="M0,80.316L-177.098,80.316L-177.098,9.839L-167.036,0L0,9.839L10.063,70.436L0,80.316Z" style="fill-rule:nonzero;"/>
                </g>
            </g>
            <g transform="matrix(-1,0,0,1,1719.38,1438.21)">
                <rect x="771.14" y="245.656" width="177.098" height="70.478" style="fill:rgb(251,108,93);"/>
            </g>
            <g opacity="0.4">
                <g transform="matrix(1,0,0,1,1300.42,1585.82)">
                    <path d="M0,80.316L-177.099,80.316L-177.099,9.839L-167.036,0L0,9.839L10.062,70.436L0,80.316Z" style="fill-rule:nonzero;"/>
                </g>
            </g>
            <g transform="matrix(1,0,0,1,0,1240.99)">
                <rect x="1133.38" y="344.268" width="177.098" height="70.477" style="fill:rgb(251,108,93);"/>
            </g>
            <g opacity="0.4">
                <g transform="matrix(1,0,0,1,1125.34,1350.36)">
                    <path d="M0,80.317L-177.098,80.317L-177.098,9.839L-167.035,0L0,9.839L10.063,70.437L0,80.317Z" style="fill-rule:nonzero;"/>
                </g>
            </g>
            <g transform="matrix(1,0,0,1,0,770.068)">
                <rect x="958.301" y="579.728" width="177.097" height="70.476" style="fill:rgb(251,108,93);"/>
            </g>
            <g opacity="0.4">
                <g transform="matrix(1,0,0,1,207.647,183.989)">
                    <path d="M0,80.316L-177.098,80.316L-177.098,9.839L-167.036,0L0,9.839L10.063,70.436L0,80.316Z" style="fill-rule:nonzero;"/>
                </g>
            </g>
            <g transform="matrix(-1,0,0,1,258.32,-1562.68)">
                <rect x="40.611" y="1746.1" width="177.098" height="70.477" style="fill:rgb(251,108,93);"/>
            </g>
            <g opacity="0.4">
                <g transform="matrix(1,0,0,1,298.208,254.426)">
                    <path d="M0,80.316L-177.098,80.316L-177.098,9.839L-167.036,0L0,9.839L10.063,70.436L0,80.316Z" style="fill-rule:nonzero;"/>
                </g>
            </g>
            <g transform="matrix(-1,0,0,1,439.444,-1421.8)">
                <rect x="131.173" y="1675.66" width="177.098" height="70.477" style="fill:rgb(251,108,93);"/>
            </g>
            <g opacity="0.4">
                <g transform="matrix(1,0,0,1,298.208,439.573)">
                    <path d="M0,80.317L-177.098,80.317L-177.098,9.84L-167.036,0L0,9.84L10.063,70.437L0,80.317Z" style="fill-rule:nonzero;"/>
                </g>
            </g>
            <g transform="matrix(-1,0,0,1,439.444,-1051.51)">
                <rect x="131.173" y="1490.52" width="177.098" height="70.477" style="fill:rgb(251,108,93);"/>
            </g>
            <g opacity="0.4">
                <g transform="matrix(1,0,0,1,660.454,340.961)">
                    <path d="M0,80.317L-177.098,80.317L-177.098,9.84L-167.036,0L0,9.84L10.063,70.437L0,80.317Z" style="fill-rule:nonzero;"/>
                </g>
            </g>
            <g transform="matrix(1,0,0,1,0,-1248.73)">
                <rect x="493.419" y="1589.13" width="177.097" height="70.476" style="fill:rgb(251,108,93);"/>
            </g>
            <g opacity="0.4">
                <g transform="matrix(1,0,0,1,485.369,105.502)">
                    <path d="M0,80.316L-177.098,80.316L-177.098,9.839L-167.036,0L0,9.839L10.063,70.436L0,80.316Z" style="fill-rule:nonzero;"/>
                </g>
            </g>
            <g transform="matrix(1,0,0,1,0,-1719.65)">
                <rect x="318.333" y="1824.59" width="177.098" height="70.477" style="fill:rgb(251,108,93);"/>
            </g>
            <g opacity="0.4">
                <g transform="matrix(1,0,0,1,207.647,598.942)">
                    <path d="M0,80.316L-177.098,80.316L-177.098,9.839L-167.036,0L0,9.839L10.063,70.436L0,80.316Z" style="fill-rule:nonzero;"/>
                </g>
            </g>
            <g transform="matrix(-1,0,0,1,258.32,-732.771)">
                <rect x="40.611" y="1331.15" width="177.098" height="70.477" style="fill:rgb(251,108,93);"/>
            </g>
            <g opacity="0.4">
                <g transform="matrix(1,0,0,1,298.208,669.378)">
                    <path d="M0,80.317L-177.098,80.317L-177.098,9.84L-167.036,0L0,9.84L10.063,70.437L0,80.317Z" style="fill-rule:nonzero;"/>
                </g>
            </g>
            <g transform="matrix(-1,0,0,1,439.444,-591.897)">
                <rect x="131.173" y="1260.71" width="177.098" height="70.477" style="fill:rgb(251,108,93);"/>
            </g>
            <g opacity="0.4">
                <g transform="matrix(1,0,0,1,298.208,854.526)">
                    <path d="M0,80.316L-177.098,80.316L-177.098,9.839L-167.036,0L0,9.839L10.063,70.437L0,80.316Z" style="fill-rule:nonzero;"/>
                </g>
            </g>
            <g transform="matrix(-1,0,0,1,439.444,-221.603)">
                <rect x="131.173" y="1075.56" width="177.098" height="70.477" style="fill:rgb(251,108,93);"/>
            </g>
            <g opacity="0.4">
                <g transform="matrix(1,0,0,1,660.454,755.915)">
                    <path d="M0,80.316L-177.098,80.316L-177.098,9.839L-167.036,0L0,9.839L10.063,70.436L0,80.316Z" style="fill-rule:nonzero;"/>
                </g>
            </g>
            <g transform="matrix(1,0,0,1,0,-418.824)">
                <rect x="493.419" y="1174.17" width="177.097" height="70.476" style="fill:rgb(251,108,93);"/>
            </g>
            <g opacity="0.4">
                <g transform="matrix(1,0,0,1,485.369,520.455)">
                    <path d="M0,80.316L-177.098,80.316L-177.098,9.839L-167.036,0L0,9.839L10.063,70.436L0,80.316Z" style="fill-rule:nonzero;"/>
                </g>
            </g>
            <g transform="matrix(1,0,0,1,0,-889.743)">
                <rect x="318.333" y="1409.63" width="177.098" height="70.477" style="fill:rgb(251,108,93);"/>
            </g>
            <g opacity="0.4">
                <g transform="matrix(1,0,0,1,207.647,1013.89)">
                    <path d="M0,80.316L-177.098,80.316L-177.098,9.839L-167.036,0L0,9.839L10.063,70.436L0,80.316Z" style="fill-rule:nonzero;"/>
                </g>
            </g>
            <g transform="matrix(-1,0,0,1,258.32,97.135)">
                <rect x="40.611" y="916.194" width="177.098" height="70.477" style="fill:rgb(251,108,93);"/>
            </g>
            <g opacity="0.4">
                <g transform="matrix(1,0,0,1,298.208,1084.33)">
                    <path d="M0,80.316L-177.098,80.316L-177.098,9.839L-167.036,0L0,9.839L10.063,70.436L0,80.316Z" style="fill-rule:nonzero;"/>
                </g>
            </g>
            <g transform="matrix(-1,0,0,1,439.444,238.007)">
                <rect x="131.173" y="845.758" width="177.098" height="70.477" style="fill:rgb(251,108,93);"/>
            </g>
            <g opacity="0.4">
                <g transform="matrix(1,0,0,1,298.208,1269.48)">
                    <path d="M0,80.316L-177.098,80.316L-177.098,9.839L-167.036,0L0,9.839L10.063,70.437L0,80.316Z" style="fill-rule:nonzero;"/>
                </g>
            </g>
            <g transform="matrix(-1,0,0,1,439.444,608.304)">
                <rect x="131.173" y="660.609" width="177.098" height="70.478" style="fill:rgb(251,108,93);"/>
            </g>
            <g opacity="0.4">
                <g transform="matrix(1,0,0,1,660.454,1170.87)">
                    <path d="M0,80.316L-177.098,80.316L-177.098,9.839L-167.036,0L0,9.839L10.063,70.436L0,80.316Z" style="fill-rule:nonzero;"/>
                </g>
            </g>
            <g transform="matrix(1,0,0,1,0,411.081)">
                <rect x="493.419" y="759.221" width="177.097" height="70.477" style="fill:rgb(251,108,93);"/>
            </g>
            <g opacity="0.4">
                <g transform="matrix(1,0,0,1,485.369,935.408)">
                    <path d="M0,80.317L-177.098,80.317L-177.098,9.84L-167.036,0L0,9.84L10.063,70.437L0,80.317Z" style="fill-rule:nonzero;"/>
                </g>
            </g>
            <g transform="matrix(1,0,0,1,0,-59.838)">
                <rect x="318.333" y="994.681" width="177.098" height="70.476" style="fill:rgb(251,108,93);"/>
            </g>
            <g opacity="0.4">
                <g transform="matrix(1,0,0,1,207.647,1428.85)">
                    <path d="M0,80.316L-177.098,80.316L-177.098,9.838L-167.036,0L0,9.838L10.063,70.436L0,80.316Z" style="fill-rule:nonzero;"/>
                </g>
            </g>
            <g transform="matrix(-1,0,0,1,258.32,927.041)">
                <rect x="40.611" y="501.241" width="177.098" height="70.477" style="fill:rgb(251,108,93);"/>
            </g>
            <g opacity="0.4">
                <g transform="matrix(1,0,0,1,298.208,1499.28)">
                    <path d="M0,80.316L-177.098,80.316L-177.098,9.839L-167.036,0L0,9.839L10.063,70.436L0,80.316Z" style="fill-rule:nonzero;"/>
                </g>
            </g>
            <g transform="matrix(-1,0,0,1,439.444,1067.91)">
                <rect x="131.173" y="430.805" width="177.098" height="70.477" style="fill:rgb(251,108,93);"/>
            </g>
            <g opacity="0.4">
                <g transform="matrix(1,0,0,1,298.208,1684.43)">
                    <path d="M0,80.316L-177.098,80.316L-177.098,9.839L-167.036,0L0,9.839L10.063,70.436L0,80.316Z" style="fill-rule:nonzero;"/>
                </g>
            </g>
            <g transform="matrix(-1,0,0,1,439.444,1438.21)">
                <rect x="131.173" y="245.656" width="177.098" height="70.478" style="fill:rgb(251,108,93);"/>
            </g>
            <g opacity="0.4">
                <g transform="matrix(1,0,0,1,660.454,1585.82)">
                    <path d="M0,80.316L-177.098,80.316L-177.098,9.839L-167.036,0L0,9.839L10.063,70.436L0,80.316Z" style="fill-rule:nonzero;"/>
                </g>
            </g>
            <g transform="matrix(1,0,0,1,0,1240.99)">
                <rect x="493.419" y="344.268" width="177.097" height="70.477" style="fill:rgb(251,108,93);"/>
            </g>
            <g opacity="0.4">
                <g transform="matrix(1,0,0,1,485.369,1350.36)">
                    <path d="M0,80.317L-177.098,80.317L-177.098,9.839L-167.036,0L0,9.839L10.063,70.437L0,80.317Z" style="fill-rule:nonzero;"/>
                </g>
            </g>
            <g transform="matrix(1,0,0,1,0,770.068)">
                <rect x="318.333" y="579.728" width="177.098" height="70.476" style="fill:rgb(251,108,93);"/>
            </g>
        </g>
    </g>
</svg>
