<?xml version="1.0" encoding="UTF-8" standalone="no"?>
<!DOCTYPE svg PUBLIC "-//W3C//DTD SVG 1.1//EN" "http://www.w3.org/Graphics/SVG/1.1/DTD/svg11.dtd">
<svg width="100%" height="100%" viewBox="0 0 4331 4479" version="1.1" xmlns="http://www.w3.org/2000/svg" xmlns:xlink="http://www.w3.org/1999/xlink" xml:space="preserve" xmlns:serif="http://www.serif.com/" style="fill-rule:evenodd;clip-rule:evenodd;stroke-miterlimit:10;">
    <g transform="matrix(4.16667,0,0,4.16667,-244.368,-728.638)">
        <rect x="517.5" y="205.5" width="45" height="1000" style="fill:rgb(234,236,200);"/>
    </g>
    <g transform="matrix(4.16667,0,0,4.16667,-244.368,-2849.47)">
        <g opacity="0.4">
            <g transform="matrix(1,0,0,1,0,509)">
                <rect x="517.5" y="205.5" width="45" height="1000"/>
            </g>
        </g>
    </g>
    <g transform="matrix(4.16667,0,0,4.16667,3372.78,418.745)">
        <path d="M0,351.256L-655.925,351.256C-668.563,351.256 -678.809,341.011 -678.809,328.372L-678.809,22.884C-678.809,10.246 -668.563,0 -655.925,0L0,0C12.639,0 22.884,10.246 22.884,22.884L22.884,328.372C22.884,341.011 12.639,351.256 0,351.256Z" style="fill:rgb(255,109,91);fill-rule:nonzero;stroke:white;stroke-width:20px;"/>
    </g>
    <g transform="matrix(4.16667,0,0,4.16667,3372.78,418.745)">
        <path d="M0,351.256L-655.925,351.256C-668.563,351.256 -678.809,341.011 -678.809,328.372L-678.809,22.884C-678.809,10.246 -668.563,0 -655.925,0L0,0C12.639,0 22.884,10.246 22.884,22.884L22.884,328.372C22.884,341.011 12.639,351.256 0,351.256Z" style="fill:rgb(255,109,91);fill-rule:nonzero;stroke:white;stroke-width:20px;"/>
    </g>
    <g transform="matrix(-4.16667,0,0,4.16667,4255.63,-2391.14)">
        <rect x="242" y="825" width="596" height="160" style="fill:white;"/>
    </g>
    <g transform="matrix(4.16667,0,0,4.16667,-244.368,-2849.47)">
        <text x="250.051px" y="911.106px" style="font-family:'LucidaGrande-Bold', 'Lucida Grande', sans-serif;font-weight:600;font-size:120px;fill:white;">V<tspan x="343.484px 425.14px 526.952px 631.694px 713.35px 791.491px " y="911.106px 911.106px 911.106px 911.106px 911.106px 911.106px ">ENDESI</tspan></text>
        <text x="261.84px" y="979.806px" style="font-family:'BodoniMT-BoldItalic', 'Bodoni MT', serif;font-weight:700;font-style:italic;font-size:40px;fill:rgb(76,76,76);">Monolocale <tspan x="779.921px " y="979.806px ">5</tspan>€</text>
        <text x="261.84px" y="1027.81px" style="font-family:'BodoniMT-BoldItalic', 'Bodoni MT', serif;font-weight:700;font-style:italic;font-size:40px;fill:rgb(76,76,76);">Bilocale <tspan x="756.561px " y="1027.81px ">1</tspan>0€</text>
        <text x="261.84px" y="1075.81px" style="font-family:'BodoniMT-BoldItalic', 'Bodoni MT', serif;font-weight:700;font-style:italic;font-size:40px;fill:rgb(76,76,76);">Attico <tspan x="757.401px " y="1075.81px ">5</tspan>0€</text>
    </g>
    <g transform="matrix(4.16667,0,0,4.16667,4293.75,3850.68)">
        <path d="M0,150.692C11.558,128.432 9.741,114.323 6.086,105.625C-1.562,87.425 -18.936,88.934 -36.518,66.191C-54.815,42.521 -47.415,26.121 -60.863,21.124C-80.381,13.87 -101.716,46.286 -127.812,38.024C-138.506,34.638 -140.519,27.422 -152.157,26.756C-166.172,25.955 -170.335,36.014 -182.588,38.024C-206.201,41.895 -214.166,8.377 -243.451,4.223C-273.228,0 -285.456,31.754 -322.572,26.756C-336.102,24.935 -339.478,20.042 -353.003,21.124C-375.048,22.887 -378.96,36.918 -395.606,38.024C-420.083,39.651 -425.768,10.258 -450.383,9.857C-476.32,9.433 -486.51,41.798 -511.246,38.024C-524.827,35.951 -528.997,25.088 -541.677,26.756C-554.291,28.417 -555.387,39.856 -566.021,43.657C-589.007,51.874 -607.961,7.041 -645.143,4.223C-682.187,1.417 -695.164,43.509 -736.437,38.024C-752.593,35.877 -762.184,27.887 -779.041,32.39C-795.567,36.805 -796.124,47.097 -809.472,49.291C-831.543,52.917 -840.134,26.438 -864.248,26.756C-888.163,27.074 -892.222,53.281 -919.024,54.923C-942.458,56.361 -953.939,37.22 -967.714,43.657C-978.532,48.713 -972.655,61.081 -985.973,77.458C-1000.69,95.548 -1017.51,99.478 -1022.49,105.625C-1027.09,111.302 -1040.8,130.033 -1016.4,150.692L0,150.692Z" style="fill:rgb(149,216,85);fill-rule:nonzero;"/>
    </g>
    <g transform="matrix(2.94628,-2.94628,-2.94628,-2.94628,3491.41,4340.4)">
        <path d="M-8.222,19.85L47.922,19.85" style="fill:none;fill-rule:nonzero;"/>
    </g>
    <g transform="matrix(2.94628,2.94628,2.94628,-2.94628,3491.41,4107.18)">
        <path d="M-8.171,-19.728L47.626,-19.728" style="fill:none;fill-rule:nonzero;"/>
    </g>
    <g transform="matrix(0,-4.16667,-4.16667,0,3371.31,4144.21)">
        <path d="M-19.012,-19.013C-29.512,-19.013 -38.025,-10.5 -38.025,0C-38.025,10.5 -29.512,19.012 -19.012,19.012C-8.512,19.012 0,10.5 0,0C0,-10.5 -8.512,-19.013 -19.012,-19.013" style="fill:rgb(255,109,92);fill-rule:nonzero;"/>
    </g>
    <g transform="matrix(0,-4.16667,-4.16667,0,3611.51,4144.21)">
        <path d="M-19.012,-19.013C-29.512,-19.013 -38.025,-10.5 -38.025,0C-38.025,10.5 -29.512,19.012 -19.012,19.012C-8.512,19.012 0,10.5 0,0C0,-10.5 -8.512,-19.013 -19.012,-19.013" style="fill:rgb(255,109,92);fill-rule:nonzero;"/>
    </g>
    <g transform="matrix(0,-4.16667,-4.16667,0,3573.18,4062.44)">
        <path d="M-19.012,-19.012C-29.512,-19.012 -38.024,-10.5 -38.024,0C-38.024,10.5 -29.512,19.012 -19.012,19.012C-8.512,19.012 0,10.5 0,0C0,-10.5 -8.512,-19.012 -19.012,-19.012" style="fill:rgb(255,109,92);fill-rule:nonzero;"/>
    </g>
    <g transform="matrix(0,-4.16667,-4.16667,0,3573.19,4225.99)">
        <path d="M-19.013,-19.011C-29.513,-19.011 -38.025,-10.499 -38.025,0.001C-38.025,10.501 -29.513,19.013 -19.013,19.013C-8.513,19.013 0,10.501 0,0.001C0,-10.499 -8.513,-19.011 -19.013,-19.011" style="fill:rgb(255,109,92);fill-rule:nonzero;"/>
    </g>
    <g transform="matrix(0,-4.16667,-4.16667,0,3409.64,4225.99)">
        <path d="M-19.013,-19.011C-29.513,-19.011 -38.025,-10.499 -38.025,0.001C-38.025,10.501 -29.513,19.013 -19.013,19.013C-8.513,19.013 0,10.501 0,0.001C0,-10.499 -8.513,-19.011 -19.013,-19.011" style="fill:rgb(255,109,92);fill-rule:nonzero;"/>
    </g>
    <g transform="matrix(0,-4.16667,-4.16667,0,3409.64,4062.44)">
        <path d="M-19.012,-19.012C-29.512,-19.012 -38.024,-10.5 -38.024,0C-38.024,10.5 -29.512,19.012 -19.012,19.012C-8.512,19.012 0,10.5 0,0C0,-10.5 -8.512,-19.012 -19.012,-19.012" style="fill:rgb(255,109,92);fill-rule:nonzero;"/>
    </g>
    <g transform="matrix(0,-4.16667,-4.16667,0,3491.42,4026.66)">
        <path d="M-19.013,-19.011C-29.513,-19.011 -38.025,-10.498 -38.025,0.002C-38.025,10.502 -29.513,19.013 -19.013,19.013C-8.513,19.013 0,10.502 0,0.002C0,-10.498 -8.513,-19.011 -19.013,-19.011" style="fill:rgb(255,109,92);fill-rule:nonzero;"/>
    </g>
    <g transform="matrix(0,-4.16667,-4.16667,0,3491.41,4261.76)">
        <path d="M-19.012,-19.012C-29.512,-19.012 -38.024,-10.499 -38.024,0.001C-38.024,10.501 -29.512,19.012 -19.012,19.012C-8.512,19.012 0,10.501 0,0.001C0,-10.499 -8.512,-19.012 -19.012,-19.012" style="fill:rgb(255,109,92);fill-rule:nonzero;"/>
    </g>
    <g transform="matrix(4.16667,0,0,4.16667,-244.368,-2849.47)">
        <g opacity="0.1">
            <g transform="matrix(0,-1,-1,0,896.587,1675.42)">
                <path d="M-22.078,-22.079C-34.272,-22.079 -44.157,-12.194 -44.157,0C-44.157,12.193 -34.272,22.078 -22.078,22.078C-9.885,22.078 0,12.193 0,0C0,-12.194 -9.885,-22.079 -22.078,-22.079" style="fill-rule:nonzero;"/>
            </g>
        </g>
    </g>
    <g transform="matrix(0,-4.16667,-4.16667,0,3491.41,4144.21)">
        <path d="M-19.012,-19.013C-29.512,-19.013 -38.025,-10.5 -38.025,0.001C-38.025,10.501 -29.512,19.012 -19.012,19.012C-8.512,19.012 0,10.501 0,0.001C0,-10.5 -8.512,-19.013 -19.012,-19.013" style="fill:rgb(255,201,75);fill-rule:nonzero;"/>
    </g>
    <g transform="matrix(0,-4.16667,-4.16667,0,2090.26,4044.53)">
        <path d="M-19.012,-19.012C-29.512,-19.012 -38.024,-10.5 -38.024,0C-38.024,10.5 -29.512,19.012 -19.012,19.012C-8.512,19.012 0,10.5 0,0C0,-10.5 -8.512,-19.012 -19.012,-19.012" style="fill:white;fill-rule:nonzero;"/>
    </g>
    <g transform="matrix(0,-4.16667,-4.16667,0,2330.47,4044.53)">
        <path d="M-19.012,-19.012C-29.512,-19.012 -38.024,-10.5 -38.024,0C-38.024,10.5 -29.512,19.012 -19.012,19.012C-8.512,19.012 0,10.5 0,0C0,-10.5 -8.512,-19.012 -19.012,-19.012" style="fill:white;fill-rule:nonzero;"/>
    </g>
    <g transform="matrix(0,-4.16667,-4.16667,0,2292.14,3962.75)">
        <path d="M-19.013,-19.011C-29.513,-19.011 -38.025,-10.499 -38.025,0.001C-38.025,10.501 -29.513,19.013 -19.013,19.013C-8.513,19.013 0,10.501 0,0.001C0,-10.499 -8.513,-19.011 -19.013,-19.011" style="fill:white;fill-rule:nonzero;"/>
    </g>
    <g transform="matrix(0,-4.16667,-4.16667,0,2292.14,4126.3)">
        <path d="M-19.013,-19.011C-29.512,-19.011 -38.025,-10.499 -38.025,0.001C-38.025,10.501 -29.512,19.013 -19.013,19.013C-8.512,19.013 0,10.501 0,0.001C0,-10.499 -8.512,-19.011 -19.013,-19.011" style="fill:white;fill-rule:nonzero;"/>
    </g>
    <g transform="matrix(0,-4.16667,-4.16667,0,2128.6,4126.3)">
        <path d="M-19.013,-19.011C-29.512,-19.011 -38.025,-10.498 -38.025,0.002C-38.025,10.502 -29.512,19.013 -19.013,19.013C-8.512,19.013 0,10.502 0,0.002C0,-10.498 -8.512,-19.011 -19.013,-19.011" style="fill:white;fill-rule:nonzero;"/>
    </g>
    <g transform="matrix(0,-4.16667,-4.16667,0,2128.6,3962.75)">
        <path d="M-19.013,-19.011C-29.513,-19.011 -38.025,-10.498 -38.025,0.002C-38.025,10.502 -29.513,19.013 -19.013,19.013C-8.513,19.013 0,10.502 0,0.002C0,-10.498 -8.513,-19.011 -19.013,-19.011" style="fill:white;fill-rule:nonzero;"/>
    </g>
    <g transform="matrix(0,-4.16667,-4.16667,0,2210.36,3926.98)">
        <path d="M-19.012,-19.013C-29.513,-19.013 -38.025,-10.5 -38.025,0C-38.025,10.501 -29.513,19.012 -19.012,19.012C-8.512,19.012 0,10.501 0,0C0,-10.5 -8.512,-19.013 -19.012,-19.013" style="fill:white;fill-rule:nonzero;"/>
    </g>
    <g transform="matrix(0,-4.16667,-4.16667,0,2210.37,4162.07)">
        <path d="M-19.013,-19.011C-29.513,-19.011 -38.025,-10.499 -38.025,0.001C-38.025,10.502 -29.513,19.013 -19.013,19.013C-8.513,19.013 0,10.502 0,0.001C0,-10.499 -8.513,-19.011 -19.013,-19.011" style="fill:white;fill-rule:nonzero;"/>
    </g>
    <g transform="matrix(4.16667,0,0,4.16667,-244.368,-2849.47)">
        <g opacity="0.1">
            <g transform="matrix(0,-1,-1,0,589.136,1651.49)">
                <path d="M-22.078,-22.078C-34.271,-22.078 -44.156,-12.193 -44.156,0C-44.156,12.194 -34.271,22.078 -22.078,22.078C-9.885,22.078 0,12.194 0,0C0,-12.193 -9.885,-22.078 -22.078,-22.078" style="fill-rule:nonzero;"/>
            </g>
        </g>
    </g>
    <g transform="matrix(0,-4.16667,-4.16667,0,2210.37,4044.53)">
        <path d="M-19.012,-19.012C-29.512,-19.012 -38.024,-10.5 -38.024,0C-38.024,10.501 -29.512,19.012 -19.012,19.012C-8.512,19.012 0,10.501 0,0C0,-10.5 -8.512,-19.012 -19.012,-19.012" style="fill:rgb(255,201,75);fill-rule:nonzero;"/>
    </g>
    <g transform="matrix(2.94628,-2.94628,-2.94628,-2.94628,801.884,4128.78)">
        <path d="M-8.388,20.252L48.891,20.252" style="fill:none;fill-rule:nonzero;"/>
    </g>
    <g transform="matrix(2.94624,2.94631,2.94631,-2.94624,801.885,3890.85)">
        <path d="M-8.337,-20.127L48.589,-20.127" style="fill:none;fill-rule:nonzero;"/>
    </g>
    <g transform="matrix(4.16667,0,0,4.16667,801.886,3890.17)">
        <path d="M0,57.254L0,0L0,57.254Z" style="fill:rgb(255,109,92);fill-rule:nonzero;"/>
    </g>
    <g transform="matrix(0,-4.16667,-4.16667,0,679.352,3928.63)">
        <path d="M-19.397,-19.397C-30.109,-19.397 -38.793,-10.713 -38.793,-0.001C-38.793,10.712 -30.109,19.397 -19.397,19.397C-8.684,19.397 -0.001,10.712 -0.001,-0.001C-0.001,-10.713 -8.684,-19.397 -19.397,-19.397" style="fill:rgb(255,109,92);fill-rule:nonzero;"/>
    </g>
    <g transform="matrix(0,-4.16667,-4.16667,0,924.414,3928.63)">
        <path d="M-19.397,-19.397C-30.109,-19.397 -38.793,-10.713 -38.793,-0.001C-38.793,10.712 -30.109,19.397 -19.397,19.397C-8.684,19.397 -0.001,10.712 -0.001,-0.001C-0.001,-10.713 -8.684,-19.397 -19.397,-19.397" style="fill:rgb(255,109,92);fill-rule:nonzero;"/>
    </g>
    <g transform="matrix(0,-4.16667,-4.16667,0,885.309,3845.2)">
        <path d="M-19.397,-19.397C-30.109,-19.397 -38.793,-10.713 -38.793,-0.001C-38.793,10.712 -30.109,19.397 -19.397,19.397C-8.684,19.397 -0.001,10.712 -0.001,-0.001C-0.001,-10.713 -8.684,-19.397 -19.397,-19.397" style="fill:rgb(255,109,92);fill-rule:nonzero;"/>
    </g>
    <g transform="matrix(0,-4.16667,-4.16667,0,885.309,4012.06)">
        <path d="M-19.397,-19.397C-30.109,-19.397 -38.793,-10.713 -38.793,-0.001C-38.793,10.712 -30.109,19.397 -19.397,19.397C-8.684,19.397 -0.001,10.712 -0.001,-0.001C-0.001,-10.713 -8.684,-19.397 -19.397,-19.397" style="fill:rgb(255,109,92);fill-rule:nonzero;"/>
    </g>
    <g transform="matrix(0,-4.16667,-4.16667,0,718.457,4012.06)">
        <path d="M-19.397,-19.397C-30.109,-19.397 -38.793,-10.713 -38.793,-0.001C-38.793,10.712 -30.109,19.397 -19.397,19.397C-8.684,19.397 -0.001,10.712 -0.001,-0.001C-0.001,-10.713 -8.684,-19.397 -19.397,-19.397" style="fill:rgb(255,109,92);fill-rule:nonzero;"/>
    </g>
    <g transform="matrix(0,-4.16667,-4.16667,0,718.457,3845.2)">
        <path d="M-19.397,-19.397C-30.109,-19.397 -38.793,-10.713 -38.793,-0.001C-38.793,10.712 -30.109,19.397 -19.397,19.397C-8.684,19.397 -0.001,10.712 -0.001,-0.001C-0.001,-10.713 -8.684,-19.397 -19.397,-19.397" style="fill:rgb(255,109,92);fill-rule:nonzero;"/>
    </g>
    <g transform="matrix(0,-4.16667,-4.16667,0,801.884,3808.7)">
        <path d="M-19.397,-19.397C-30.11,-19.397 -38.793,-10.713 -38.793,-0.001C-38.793,10.712 -30.11,19.397 -19.397,19.397C-8.684,19.397 -0.001,10.712 -0.001,-0.001C-0.001,-10.713 -8.684,-19.397 -19.397,-19.397" style="fill:rgb(255,109,92);fill-rule:nonzero;"/>
    </g>
    <g transform="matrix(0,-4.16667,-4.16667,0,801.886,4048.55)">
        <path d="M-19.397,-19.396C-30.109,-19.396 -38.793,-10.712 -38.793,0C-38.793,10.713 -30.109,19.397 -19.397,19.397C-8.684,19.397 0,10.713 0,0C0,-10.712 -8.684,-19.396 -19.397,-19.396" style="fill:rgb(255,109,92);fill-rule:nonzero;"/>
    </g>
    <g transform="matrix(4.16667,0,0,4.16667,-244.368,-2849.47)">
        <g opacity="0.1">
            <g transform="matrix(0,-1,-1,0,251.101,1623.62)">
                <path d="M-22.525,-22.525C-34.965,-22.525 -45.049,-12.439 -45.049,0C-45.049,12.441 -34.965,22.525 -22.525,22.525C-10.085,22.525 0,12.441 0,0C0,-12.439 -10.085,-22.525 -22.525,-22.525" style="fill-rule:nonzero;"/>
            </g>
        </g>
    </g>
    <g transform="matrix(0,-4.16667,-4.16667,0,801.884,3928.63)">
        <path d="M-19.397,-19.397C-30.109,-19.397 -38.793,-10.713 -38.793,-0.001C-38.793,10.712 -30.109,19.397 -19.397,19.397C-8.684,19.397 -0.001,10.712 -0.001,-0.001C-0.001,-10.713 -8.684,-19.397 -19.397,-19.397" style="fill:rgb(255,201,75);fill-rule:nonzero;"/>
    </g>
</svg>
